<svg width="189" height="189" viewBox="0 0 189 189" fill="none" xmlns="http://www.w3.org/2000/svg">
<path d="M94.5329 178.312C140.747 178.312 178.211 140.854 178.211 94.648C178.211 48.4417 140.747 10.9841 94.5329 10.9841C48.3186 10.9841 10.8545 48.4417 10.8545 94.648C10.8545 140.854 48.3186 178.312 94.5329 178.312Z" fill="white"/>
<path fill-rule="evenodd" clip-rule="evenodd" d="M11.0848 94.4507C11.0848 48.3106 48.4177 10.8855 94.5 10.8855C140.582 10.8855 177.915 48.3106 177.915 94.4507C177.915 140.591 140.582 178.016 94.5 178.016C48.4177 178.016 11.0848 140.624 11.0848 94.4507ZM96.8025 186.698C97.7234 188.145 98.9405 188.934 100.223 188.934C101.638 188.934 102.92 187.948 103.71 186.238C104.269 185.054 105.124 184.396 106.045 184.396C106.802 184.396 107.624 184.856 108.282 185.678C109.269 186.862 110.42 187.52 111.571 187.52C113.117 187.52 114.433 186.336 115.091 184.396C115.551 183.015 116.406 182.258 117.426 182.258C118.117 182.258 118.873 182.62 119.564 183.245C120.551 184.166 121.636 184.659 122.656 184.659C124.399 184.659 125.715 183.278 126.143 181.074C126.439 179.529 127.327 178.641 128.478 178.641C129.103 178.641 129.794 178.904 130.451 179.364C131.405 180.055 132.392 180.417 133.28 180.417C135.221 180.417 136.569 178.838 136.734 176.404C136.865 174.694 137.721 173.675 139.036 173.675C139.563 173.675 140.188 173.839 140.78 174.168C142.687 175.188 144.497 175.089 145.615 173.905C146.371 173.116 146.733 171.899 146.635 170.452C146.569 169.432 146.832 168.61 147.325 168.051C147.983 167.361 149.134 167.229 150.384 167.722C152.292 168.479 154.068 168.183 155.022 166.999C155.779 166.111 156.009 164.795 155.713 163.283C155.515 162.23 155.68 161.309 156.173 160.717C156.765 159.994 157.818 159.764 159.101 160.093C161.009 160.586 162.653 160.158 163.508 158.942C164.232 157.955 164.331 156.574 163.837 154.995C163.475 153.91 163.574 152.956 164.035 152.298C164.561 151.608 165.548 151.279 166.798 151.41C168.738 151.641 170.186 151.082 170.942 149.898C171.633 148.812 171.633 147.365 170.876 145.787C170.383 144.702 170.35 143.715 170.81 142.991C171.271 142.268 172.159 141.873 173.376 141.873C175.185 141.873 176.567 141.216 177.224 140.032C177.882 138.848 177.718 137.335 176.731 135.789C176.106 134.77 175.942 133.783 176.304 133.027C176.665 132.27 177.521 131.744 178.705 131.58C180.514 131.35 181.764 130.527 182.29 129.245C182.783 127.995 182.422 126.515 181.27 125.101C180.514 124.18 180.251 123.227 180.514 122.404C180.777 121.582 181.566 120.99 182.718 120.694C184.461 120.234 185.645 119.247 185.974 117.932C186.303 116.616 185.777 115.202 184.461 113.952C183.606 113.13 183.211 112.21 183.375 111.387C183.54 110.565 184.231 109.842 185.349 109.414C187.026 108.756 188.046 107.638 188.243 106.29C188.408 104.942 187.684 103.593 186.237 102.541C185.283 101.817 184.757 100.962 184.823 100.14C184.888 99.285 185.481 98.4957 186.533 97.9367C188.112 97.0487 189 95.8319 189 94.4507C189 93.1023 188.112 91.8526 186.533 90.9647C185.481 90.3727 184.888 89.5834 184.823 88.7613C184.757 87.9062 185.283 87.0512 186.237 86.3605C187.717 85.2753 188.408 83.9598 188.243 82.6114C188.079 81.2631 187.059 80.1449 185.349 79.4872C184.231 79.0268 183.54 78.3362 183.375 77.514C183.211 76.6918 183.606 75.771 184.461 74.9488C185.777 73.6991 186.336 72.285 185.974 70.9695C185.645 69.6541 184.494 68.6675 182.718 68.2071C181.566 67.9111 180.777 67.2862 180.514 66.497C180.251 65.6748 180.514 64.7211 181.27 63.8002C182.422 62.3861 182.783 60.9062 182.29 59.6565C181.797 58.4068 180.514 57.5847 178.738 57.3216C177.553 57.1571 176.698 56.6638 176.336 55.8745C175.975 55.1181 176.139 54.1315 176.764 53.1121C177.718 51.5664 177.915 50.0536 177.257 48.8697C176.6 47.6857 175.251 47.028 173.409 46.9951C172.225 46.9951 171.304 46.6005 170.843 45.877C170.383 45.1535 170.416 44.1669 170.909 43.0816C171.633 41.503 171.666 40.056 170.975 38.9708C170.218 37.7868 168.771 37.2278 166.83 37.458C165.581 37.5895 164.594 37.2935 164.068 36.57C163.607 35.9123 163.508 34.9586 163.87 33.8733C164.364 32.3276 164.232 30.9135 163.541 29.9269C162.686 28.743 161.041 28.3155 159.134 28.7759C157.884 29.1047 156.798 28.8745 156.206 28.151C155.713 27.5591 155.548 26.6711 155.746 25.5859C156.042 24.0402 155.779 22.7576 155.055 21.8697C154.068 20.6857 152.325 20.4227 150.417 21.1462C149.167 21.6395 148.016 21.5079 147.358 20.8173C146.865 20.2911 146.602 19.4361 146.667 18.4495C146.766 16.9695 146.404 15.7856 145.648 14.9963C144.529 13.8124 142.687 13.6809 140.813 14.7333C140.188 15.0621 139.596 15.2266 139.069 15.2266C137.754 15.2266 136.865 14.2071 136.767 12.497C136.602 10.0633 135.254 8.48477 133.313 8.48477C132.392 8.48477 131.405 8.84653 130.484 9.53715C129.826 10.0305 129.136 10.2935 128.511 10.2935C127.36 10.2935 126.471 9.37272 126.175 7.85993C125.748 5.65652 124.399 4.27527 122.689 4.27527C121.669 4.27527 120.584 4.76857 119.597 5.6894C118.906 6.34714 118.15 6.676 117.459 6.676C116.406 6.676 115.551 5.88672 115.124 4.53837C114.466 2.56516 113.15 1.41413 111.604 1.41413C110.453 1.41413 109.302 2.03898 108.315 3.25579C107.624 4.07795 106.835 4.53837 106.078 4.53837C105.157 4.53837 104.302 3.84775 103.743 2.69671C102.92 0.986602 101.671 0 100.256 0C98.9734 0 97.7564 0.789282 96.8354 2.26918C95.5526 4.27527 93.5132 4.27527 92.1975 2.26918C91.2765 0.822168 90.0595 0 88.7767 0C87.3623 0 86.0795 0.986602 85.2901 2.69671C84.7309 3.88063 83.8757 4.53837 82.9547 4.53837C82.1982 4.53837 81.4088 4.07795 80.7181 3.25579C79.7313 2.07186 78.5801 1.41413 77.4288 1.41413C75.8829 1.41413 74.5672 2.59805 73.9093 4.53837C73.4488 5.91961 72.5936 6.70889 71.574 6.70889C70.8832 6.70889 70.1267 6.34714 69.4359 5.72229C68.4492 4.80146 67.3637 4.30816 66.3441 4.30816C64.6008 4.30816 63.2851 5.6894 62.8575 7.89281C62.5614 9.43849 61.6733 10.3264 60.5221 10.3264C59.8971 10.3264 59.2064 10.0633 58.5485 9.57004C57.5947 8.87942 56.6079 8.51766 55.7198 8.51766C53.7792 8.51766 52.4306 10.0962 52.2661 12.5298C52.1345 14.24 51.2793 15.2594 49.9636 15.2594C49.4373 15.2594 48.8124 15.095 48.2203 14.7661C46.3455 13.7467 44.5035 13.8453 43.3851 15.0292C42.6286 15.8185 42.2668 17.0353 42.3655 18.4823C42.4313 19.5018 42.1681 20.324 41.6747 20.8502C41.0169 21.5737 39.8656 21.6723 38.6157 21.179C36.708 20.4227 34.9647 20.7186 33.9779 21.9026C33.2214 22.7905 32.9911 24.0731 33.2872 25.6188C33.4845 26.6711 33.32 27.592 32.8267 28.1839C32.2346 28.9074 31.1491 29.1376 29.8992 28.8088C27.9915 28.3155 26.3468 28.743 25.4916 29.9598C24.768 30.9464 24.6364 32.3276 25.1627 33.9062C25.4916 34.9915 25.4259 35.9452 24.9654 36.6029C24.4391 37.3264 23.4523 37.6224 22.2024 37.4909C20.2617 37.2607 18.8145 37.8197 18.058 39.0037C17.3672 40.0889 17.4001 41.5688 18.1237 43.1145C18.6171 44.1998 18.65 45.1864 18.1895 45.9099C17.729 46.6334 16.8409 47.028 15.6239 47.028C13.8148 47.028 12.4333 47.6857 11.7755 48.9026C11.1176 50.0865 11.2821 51.5993 12.2689 53.1449C12.8938 54.1644 13.0583 55.151 12.6965 55.9074C12.3347 56.6638 11.4795 57.19 10.2953 57.3544C8.48625 57.5846 7.23634 58.4068 6.71006 59.6894C6.21667 60.9391 6.57849 62.419 7.72972 63.8331C8.48625 64.754 8.74939 65.7077 8.48625 66.5298C8.22311 67.352 7.43369 67.944 6.28245 68.2399C4.50626 68.7004 3.35503 69.687 3.0261 71.0024C2.69718 72.3179 3.22346 73.732 4.53916 74.9817C5.39436 75.8039 5.78907 76.7247 5.62461 77.5469C5.46014 78.3691 4.7694 79.0926 3.65106 79.5201C1.97354 80.2107 0.953882 81.296 0.756527 82.6443C0.592065 83.9927 1.3157 85.341 2.76296 86.3934C3.71684 87.1169 4.21023 87.972 4.17734 88.7942C4.11155 89.6492 3.51949 90.4385 2.46693 90.9976C0.888096 91.8855 0 93.1023 0 94.4836C0 95.8319 0.888096 97.0816 2.46693 97.9696C3.51949 98.5615 4.11155 99.3508 4.17734 100.173C4.24312 101.028 3.71684 101.883 2.76296 102.574C1.2828 103.659 0.592065 104.974 0.756527 106.323C0.920989 107.671 1.94065 108.789 3.65106 109.447C4.7694 109.907 5.46014 110.598 5.62461 111.42C5.78907 112.242 5.39436 113.163 4.53916 113.985C3.22346 115.235 2.66429 116.649 3.0261 117.965C3.35503 119.28 4.50626 120.267 6.28245 120.727C7.43369 121.023 8.22311 121.648 8.48625 122.437C8.74939 123.259 8.48625 124.213 7.72972 125.134C6.57849 126.548 6.21667 128.028 6.71006 129.278C7.20344 130.527 8.48625 131.35 10.2624 131.613C11.4466 131.777 12.3018 132.27 12.6636 133.06C13.0254 133.816 12.8609 134.803 12.236 135.822C11.2821 137.368 11.0848 138.881 11.7426 140.065C12.4005 141.248 13.749 141.906 15.591 141.939C16.7751 141.939 17.6961 142.334 18.1566 143.057C18.6171 143.781 18.5842 144.767 18.0908 145.853C17.3672 147.431 17.3343 148.878 18.0251 149.963C18.7816 151.147 20.2289 151.706 22.1695 151.476C23.4194 151.312 24.4062 151.641 24.9325 152.364C25.393 153.022 25.4916 153.976 25.1298 155.061C24.6364 156.607 24.768 158.021 25.4588 159.007C26.314 160.191 27.9586 160.619 29.8663 160.158C31.1163 159.829 32.2017 160.06 32.7938 160.783C33.2872 161.375 33.4516 162.296 33.2543 163.348C32.9582 164.894 33.2214 166.177 33.945 167.065C34.9318 168.248 36.6751 168.512 38.5828 167.788C39.8328 167.295 40.984 167.426 41.6418 168.117C42.1352 168.643 42.3984 169.498 42.3326 170.518C42.2339 171.965 42.5957 173.181 43.3522 173.971C44.4706 175.155 46.3126 175.286 48.1874 174.234C48.8124 173.905 49.4045 173.741 49.9307 173.741C51.2464 173.741 52.1345 174.76 52.2332 176.47C52.3977 178.904 53.7463 180.482 55.6869 180.482C56.6079 180.482 57.5947 180.121 58.5157 179.43C59.1735 178.937 59.8643 178.706 60.4892 178.706C61.6404 178.706 62.5285 179.627 62.8246 181.14C63.2522 183.343 64.6008 184.725 66.3112 184.725C67.3308 184.725 68.4163 184.231 69.4031 183.311C70.0938 182.653 70.8503 182.324 71.5411 182.324C72.5936 182.324 73.4488 183.113 73.8764 184.462C74.5343 186.435 75.85 187.586 77.3959 187.586C78.5472 187.586 79.6984 186.961 80.6852 185.744C81.3759 184.922 82.1653 184.462 82.9219 184.462C83.8428 184.462 84.698 185.152 85.2572 186.303C86.0795 188.013 87.3623 189 88.7438 189C90.0266 189 91.2436 188.211 92.1646 186.764C93.4803 184.659 95.5197 184.659 96.8025 186.698Z" fill="#3F2212"/>
<path d="M172.291 100.206C172.258 100.995 171.6 101.587 170.81 101.521C170.021 101.456 169.429 100.765 169.462 100.008C169.495 99.2521 170.153 98.6601 170.942 98.693C171.731 98.7259 172.324 99.4165 172.291 100.206ZM170.218 105.731C169.462 105.632 168.738 106.158 168.607 106.915C168.508 107.671 169.034 108.395 169.791 108.559C170.547 108.691 171.271 108.197 171.403 107.375C171.534 106.586 171.008 105.829 170.218 105.731ZM168.87 112.67C168.113 112.473 167.357 112.933 167.159 113.689C166.962 114.413 167.423 115.202 168.179 115.432C168.936 115.663 169.692 115.202 169.889 114.413C170.087 113.624 169.626 112.867 168.87 112.67ZM166.896 119.445C166.14 119.181 165.35 119.576 165.087 120.3C164.824 121.023 165.219 121.845 165.942 122.108C166.666 122.404 167.488 122.01 167.751 121.253C168.015 120.53 167.62 119.708 166.896 119.445ZM164.298 126.055C163.574 125.726 162.752 126.022 162.39 126.713C162.061 127.403 162.357 128.258 163.048 128.587C163.739 128.949 164.594 128.62 164.923 127.929C165.285 127.206 164.989 126.351 164.298 126.055ZM161.074 132.336C160.384 131.942 159.528 132.172 159.134 132.829C158.739 133.487 158.969 134.342 159.627 134.77C160.285 135.197 161.173 134.967 161.568 134.276C161.962 133.586 161.765 132.731 161.074 132.336ZM155.318 138.618C154.858 139.242 154.989 140.097 155.614 140.591C156.239 141.051 157.127 140.92 157.588 140.295C158.081 139.637 157.917 138.782 157.292 138.322C156.667 137.894 155.779 138.026 155.318 138.618ZM150.976 144.044C150.45 144.603 150.516 145.491 151.075 146.017C151.634 146.543 152.555 146.477 153.081 145.885C153.608 145.294 153.575 144.406 152.983 143.912C152.391 143.452 151.503 143.485 150.976 144.044ZM146.141 149.075C145.582 149.602 145.549 150.49 146.075 151.049C146.602 151.641 147.49 151.674 148.082 151.114C148.674 150.588 148.707 149.7 148.148 149.141C147.621 148.582 146.733 148.549 146.141 149.075ZM140.911 153.614C140.286 154.074 140.188 154.962 140.648 155.587C141.109 156.212 142.03 156.343 142.655 155.85C143.28 155.357 143.411 154.502 142.918 153.877C142.424 153.252 141.503 153.153 140.911 153.614ZM135.254 157.626C134.596 158.021 134.399 158.876 134.793 159.533C135.188 160.191 136.076 160.389 136.767 159.994C137.458 159.566 137.655 158.711 137.227 158.086C136.8 157.462 135.912 157.231 135.254 157.626ZM129.267 161.145C128.577 161.474 128.281 162.329 128.642 163.019C129.004 163.71 129.859 164.006 130.583 163.644C131.307 163.283 131.57 162.46 131.208 161.77C130.813 161.112 129.958 160.816 129.267 161.145ZM122.952 164.072C122.228 164.335 121.867 165.124 122.163 165.881C122.426 166.604 123.281 166.966 124.037 166.703C124.794 166.44 125.123 165.585 124.827 164.861C124.498 164.138 123.676 163.842 122.952 164.072ZM116.406 166.44C115.683 166.637 115.222 167.393 115.452 168.15C115.65 168.906 116.472 169.334 117.229 169.136C118.018 168.939 118.413 168.051 118.15 167.361C117.919 166.571 117.163 166.242 116.406 166.44ZM109.696 168.15C108.94 168.281 108.446 168.972 108.578 169.761C108.71 170.518 109.466 171.044 110.255 170.945C111.045 170.748 111.505 169.959 111.341 169.202C111.176 168.446 110.42 167.985 109.696 168.15ZM102.822 169.202C102.065 169.334 101.506 169.959 101.572 170.748C101.638 171.504 102.361 172.162 103.151 171.998C103.94 171.866 104.499 171.143 104.401 170.386C104.269 169.63 103.578 169.104 102.822 169.202ZM95.8815 169.63C95.125 169.663 94.5 170.32 94.5 171.11C94.5 171.899 95.1579 172.491 95.9473 172.458C96.7367 172.425 97.3617 171.767 97.3288 170.978C97.2959 170.189 96.638 169.597 95.8815 169.63ZM88.9412 169.4C88.1847 169.367 87.4939 169.959 87.4281 170.748C87.3623 171.537 87.9544 172.195 88.7438 172.228C89.5332 172.261 90.224 171.669 90.2569 170.879C90.2898 170.123 89.6977 169.465 88.9412 169.4ZM82.0338 168.577C81.2772 168.446 80.5536 168.972 80.3892 169.761C80.2576 170.518 80.751 171.241 81.5733 171.373C82.3627 171.504 83.0863 170.978 83.2179 170.189C83.3166 169.399 82.7903 168.709 82.0338 168.577ZM75.2579 167.13C74.5343 166.933 73.7449 167.393 73.5146 168.15C73.3173 168.906 73.7449 169.663 74.5343 169.86C75.3237 170.057 76.0802 169.597 76.2776 168.84C76.4421 168.084 75.9816 167.295 75.2579 167.13ZM68.6465 165.026C67.9229 164.762 67.1006 165.124 66.8375 165.848C66.5414 166.571 66.9361 167.393 67.6927 167.656C68.4492 167.92 69.2715 167.558 69.5017 166.834C69.732 166.111 69.3373 165.289 68.6465 165.026ZM62.2325 162.362C61.5418 162.033 60.6866 162.329 60.3576 163.019C59.9958 163.71 60.2919 164.565 61.0155 164.894C61.7391 165.256 62.5614 164.96 62.8904 164.236C63.2193 163.513 62.9233 162.691 62.2325 162.362ZM56.1145 159.073C55.4567 158.678 54.6015 158.876 54.1739 159.533C53.7792 160.191 53.9765 161.079 54.6673 161.474C55.358 161.901 56.2132 161.671 56.6079 161.013C56.9697 160.356 56.7395 159.468 56.1145 159.073ZM48.3519 155.554C47.8914 156.179 48.023 157.067 48.6479 157.56C49.2729 158.054 50.161 157.889 50.6215 157.264C51.082 156.639 50.9175 155.719 50.3254 155.291C49.7005 154.798 48.8124 154.929 48.3519 155.554ZM42.8918 151.049C42.3655 151.641 42.4313 152.529 43.0233 153.055C43.6154 153.581 44.5035 153.548 44.9969 152.956C45.4903 152.364 45.4574 151.476 44.8653 150.95C44.3061 150.424 43.418 150.457 42.8918 151.049ZM37.8921 146.05C37.3 146.576 37.2672 147.464 37.8263 148.056C38.3526 148.648 39.2407 148.681 39.7999 148.122C40.359 147.563 40.3919 146.675 39.8657 146.116C39.3723 145.557 38.4842 145.524 37.8921 146.05ZM33.3858 140.591C32.7609 141.051 32.6622 141.972 33.1227 142.597C33.6161 143.222 34.4713 143.353 35.0962 142.86C35.6883 142.367 35.8199 141.446 35.3594 140.854C34.866 140.262 34.0108 140.13 33.3858 140.591ZM29.373 134.77C28.7151 135.164 28.5178 136.052 28.9125 136.743C29.3401 137.434 30.1953 137.631 30.8202 137.203C31.4781 136.776 31.6754 135.888 31.2807 135.23C30.886 134.572 30.0308 134.342 29.373 134.77ZM25.9193 128.587C25.2285 128.916 24.9325 129.804 25.2943 130.527C25.6561 131.251 26.4784 131.514 27.1692 131.152C27.827 130.79 28.123 129.903 27.7941 129.212C27.4652 128.521 26.61 128.258 25.9193 128.587ZM23.0576 122.141C22.334 122.437 21.9722 123.259 22.2353 124.016C22.4984 124.772 23.3536 125.101 24.0773 124.805C24.8009 124.509 25.0969 123.687 24.8667 122.963C24.6036 122.207 23.7812 121.845 23.0576 122.141ZM22.4984 116.386C22.3011 115.63 21.5446 115.202 20.788 115.432C20.0315 115.63 19.6039 116.452 19.8013 117.208C19.9986 117.998 20.8867 118.392 21.6103 118.129C22.3669 117.899 22.6958 117.11 22.4984 116.386ZM20.788 109.644C20.6565 108.888 19.9657 108.395 19.1763 108.526C18.4198 108.658 17.8935 109.414 17.9922 110.203C18.1895 110.96 18.9789 111.453 19.7355 111.289C20.492 111.124 20.9525 110.401 20.788 109.644ZM19.7355 102.771C19.571 102.015 18.979 101.456 18.1895 101.521C17.433 101.587 16.7752 102.311 16.9067 103.1C17.0383 103.889 17.7619 104.448 18.5185 104.35C19.3079 104.218 19.8342 103.527 19.7355 102.771ZM17.9593 97.2789C18.7487 97.246 19.3408 96.5883 19.3079 95.8319C19.275 95.0755 18.6171 94.4506 17.8277 94.4506C17.0383 94.4506 16.4462 95.1084 16.4791 95.8976C16.512 96.6869 17.2028 97.3118 17.9593 97.2789ZM18.058 90.2082C18.8474 90.2411 19.5052 89.6492 19.5381 88.8928C19.571 88.1364 18.979 87.4458 18.1895 87.38C17.4001 87.3142 16.7423 87.9062 16.7094 88.6955C16.6765 89.4847 17.2685 90.1754 18.058 90.2082ZM18.7487 83.1705C19.5052 83.2691 20.2289 82.7758 20.3604 81.9866C20.4591 81.2302 19.9328 80.5067 19.1763 80.3422C18.4198 80.2107 17.6961 80.704 17.5646 81.4933C17.433 82.3483 17.9593 83.0718 18.7487 83.1705ZM20.0973 76.2314C20.8538 76.4287 21.6103 75.9683 21.8077 75.2119C22.0051 74.4884 21.5446 73.6991 20.788 73.4689C20.0315 73.2387 19.275 73.6991 19.0776 74.4884C18.8803 75.2777 19.3408 76.0669 20.0973 76.2314ZM22.0708 69.4567C22.7945 69.7198 23.6168 69.3252 23.8799 68.6017C24.1431 67.8781 23.7484 67.056 23.0247 66.7929C22.3011 66.4969 21.4788 66.8915 21.2156 67.6479C20.9854 68.3715 21.3472 69.1936 22.0708 69.4567ZM24.7022 62.8794C25.4259 63.2082 26.2482 62.9123 26.61 62.2216C26.9389 61.531 26.6429 60.676 25.9521 60.3471C25.2614 59.9853 24.4062 60.3142 24.0773 61.0048C23.6826 61.6954 23.9786 62.5505 24.7022 62.8794ZM29.8664 56.0718C30.2611 55.4141 30.0637 54.559 29.373 54.1315C28.7151 53.704 27.827 53.9342 27.4323 54.6248C27.0047 55.3154 27.235 56.1705 27.9257 56.5651C28.5835 56.9598 29.4387 56.7296 29.8664 56.0718ZM33.3858 48.3105C32.7609 47.8501 31.8728 47.9817 31.4123 48.6065C30.9189 49.2643 31.0505 50.1193 31.7083 50.5797C32.3662 51.0401 33.2543 50.8757 33.6819 50.2838C34.1424 49.6589 34.0108 48.771 33.3858 48.3105ZM37.8921 42.8842C37.3329 42.358 36.4119 42.4238 35.8857 43.0158C35.3594 43.6077 35.3923 44.4957 35.9843 44.989C36.5764 45.4823 37.4974 45.4494 37.9908 44.8574C38.5171 44.2984 38.4842 43.4104 37.8921 42.8842ZM42.8918 37.8855C42.3655 37.2935 41.4774 37.2606 40.8853 37.8197C40.2933 38.3459 40.2604 39.2338 40.8195 39.7929C41.3787 40.352 42.2668 40.3848 42.826 39.8587C43.3851 39.3325 43.418 38.4445 42.8918 37.8855ZM48.3519 33.3471C47.8914 32.7222 46.9704 32.5907 46.3455 33.084C45.7205 33.5773 45.5889 34.4323 46.0823 35.0572C46.5757 35.6492 47.4638 35.7807 48.0888 35.3203C48.6808 34.8599 48.8124 33.9719 48.3519 33.3471ZM54.1739 29.3349C53.7792 28.6772 52.8911 28.4798 52.2003 28.8745C51.5096 29.302 51.3122 30.1571 51.7727 30.7819C52.2003 31.4397 53.0884 31.637 53.7463 31.2423C54.3712 30.8806 54.5686 30.0255 54.1739 29.3349ZM60.3576 25.8818C60.0287 25.1912 59.1406 24.8952 58.417 25.2569C57.6934 25.5858 57.4302 26.4409 57.792 27.1315C58.1539 27.7892 59.0091 28.0852 59.6998 27.7563C60.4234 27.4275 60.6866 26.6053 60.3576 25.8818ZM66.8046 23.0207C66.5414 22.2971 65.6862 21.9354 64.9297 22.1985C64.1732 22.4616 63.8442 23.3166 64.1403 24.0401C64.4363 24.7636 65.2586 25.0596 65.9823 24.7965C66.7388 24.5663 67.1006 23.777 66.8046 23.0207ZM73.5146 20.7844C73.3173 20.028 72.495 19.5675 71.7384 19.7978C70.949 19.9951 70.5543 20.883 70.8174 21.5736C71.0806 22.33 71.8371 22.6589 72.5607 22.4945C73.2844 22.2971 73.7449 21.5407 73.5146 20.7844ZM78.7116 17.989C77.9222 18.1863 77.4617 18.9756 77.6262 19.732C77.7906 20.4884 78.5472 20.9488 79.2708 20.7515C80.0273 20.6199 80.5207 19.9293 80.3892 19.14C80.2576 18.3836 79.5011 17.8574 78.7116 17.989ZM85.8493 16.9037C85.0599 17.0353 84.5007 17.7588 84.5994 18.5152C84.6981 19.2716 85.3888 19.8306 86.1453 19.6991C86.9019 19.5675 87.461 18.9427 87.3952 18.1534C87.3623 17.397 86.6387 16.7393 85.8493 16.9037ZM93.0527 16.4762C92.2633 16.5091 91.6384 17.1668 91.6713 17.9561C91.7041 18.7454 92.362 19.3373 93.1185 19.3045C93.875 19.2716 94.5 18.6138 94.5 17.8245C94.5 17.0353 93.8422 16.4104 93.0527 16.4762ZM100.256 16.6735C99.4668 16.6406 98.776 17.2326 98.7431 18.0219C98.7102 18.8111 99.3023 19.4689 100.059 19.5018C100.815 19.5347 101.506 18.9427 101.572 18.1534C101.638 17.397 101.046 16.7064 100.256 16.6735ZM107.394 17.5286C106.604 17.397 105.881 17.9561 105.749 18.7125C105.651 19.4689 106.177 20.1924 106.933 20.3239C107.69 20.4555 108.414 19.8964 108.578 19.14C108.71 18.3836 108.183 17.6601 107.394 17.5286ZM114.433 19.0742C113.643 18.8769 112.887 19.3373 112.69 20.0937C112.492 20.8501 112.953 21.6065 113.709 21.8038C114.433 22.0012 115.222 21.5407 115.452 20.7844C115.683 20.028 115.222 19.2716 114.433 19.0742ZM121.307 21.2119C120.551 20.9488 119.761 21.3105 119.498 22.0341C119.235 22.7576 119.63 23.5797 120.353 23.8428C121.077 24.1059 121.899 23.7442 122.163 23.0207C122.459 22.2971 122.064 21.5079 121.307 21.2119ZM127.952 24.0073C127.228 23.6455 126.406 23.9415 126.077 24.665C125.748 25.3885 126.044 26.2107 126.735 26.5724C127.425 26.9013 128.281 26.6053 128.609 25.9147C128.971 25.1912 128.675 24.369 127.952 24.0073ZM134.333 27.3946C133.642 26.9671 132.787 27.1973 132.392 27.8879C131.997 28.5785 132.228 29.4336 132.885 29.8282C133.543 30.2228 134.399 30.0255 134.826 29.3349C135.221 28.6772 134.991 27.8221 134.333 27.3946ZM140.352 31.3739C139.727 30.8806 138.839 31.045 138.379 31.6699C137.918 32.2947 138.083 33.2155 138.675 33.6431C139.3 34.1035 140.155 33.9719 140.648 33.3471C141.109 32.7222 140.977 31.8343 140.352 31.3739ZM145.977 35.8465C145.385 35.3203 144.497 35.3532 144.003 35.9451C143.51 36.5371 143.543 37.425 144.102 37.9512C144.661 38.4774 145.549 38.4116 146.075 37.8526C146.602 37.2935 146.569 36.4056 145.977 35.8465ZM151.141 40.8453C150.615 40.2533 149.726 40.2204 149.167 40.7795C148.608 41.3386 148.575 42.2265 149.101 42.7856C149.628 43.3446 150.516 43.3775 151.075 42.8514C151.667 42.3581 151.7 41.4372 151.141 40.8453ZM155.877 46.3045C155.384 45.6796 154.529 45.5481 153.904 46.0414C153.312 46.5347 153.18 47.4226 153.641 48.0475C154.101 48.6723 154.989 48.771 155.614 48.3105C156.239 47.8501 156.338 46.9293 155.877 46.3045ZM159.594 54.1315C160.252 53.7369 160.449 52.8489 160.055 52.1583C159.627 51.4677 158.772 51.2704 158.147 51.7308C157.489 52.1583 157.292 53.0462 157.686 53.704C158.081 54.3617 158.936 54.559 159.594 54.1315ZM163.048 60.3142C163.739 59.9853 164.035 59.0974 163.673 58.3739C163.311 57.6504 162.489 57.3873 161.798 57.749C161.14 58.1108 160.844 58.9658 161.173 59.6894C161.535 60.38 162.357 60.676 163.048 60.3142ZM165.91 66.7929C166.633 66.4969 166.995 65.6747 166.732 64.9183C166.469 64.1619 165.613 63.8331 164.89 64.1291C164.166 64.425 163.87 65.2472 164.133 65.9707C164.396 66.6942 165.186 67.056 165.91 66.7929ZM166.469 72.5481C166.666 73.3045 167.423 73.732 168.179 73.5018C168.936 73.3045 169.363 72.4823 169.166 71.7259C168.969 70.9366 168.08 70.542 167.39 70.8051C166.633 71.0353 166.304 71.7917 166.469 72.5481ZM168.212 79.257C168.344 80.0134 169.034 80.5067 169.824 80.3751C170.58 80.2436 171.107 79.4872 170.975 78.6979C170.778 77.9086 169.988 77.4482 169.232 77.6126C168.475 77.7771 168.015 78.5335 168.212 79.257ZM169.265 86.1303C169.396 86.8867 170.021 87.4458 170.81 87.38C171.567 87.3142 172.225 86.5907 172.06 85.8014C171.929 85.0121 171.205 84.4531 170.449 84.5517C169.659 84.6833 169.133 85.3739 169.265 86.1303ZM171.008 91.6224C170.218 91.6553 169.626 92.313 169.659 93.0694C169.692 93.8258 170.35 94.4506 171.139 94.4506C171.929 94.4506 172.521 93.7929 172.488 93.0036C172.455 92.2143 171.797 91.5895 171.008 91.6224Z" fill="#EF7B84"/>
<path d="M46.477 74.0609C41.5102 74.0609 37.7605 77.2838 37.7605 81.4933C37.7605 82.1182 37.8263 82.5457 37.9578 82.9075C36.2803 82.9075 35.6883 81.9537 35.6883 80.7698C35.6883 77.2181 41.0826 73.0414 47.6282 73.0414C54.437 73.0414 57.1012 77.6127 57.1012 83.4665C57.1012 94.4507 47.7598 103.725 38.8459 103.725C37.2342 103.725 35.754 103.429 34.7673 102.015C36.2803 94.7796 40.2603 82.8746 41.3458 79.9477C41.6418 79.1584 42.793 76.363 44.3061 76.363C44.635 76.363 44.9968 76.4617 45.3586 76.7576C42.201 84.0256 38.7473 95.24 37.1355 102.574C37.8263 102.672 38.2868 102.738 38.7802 102.738C46.8388 102.738 54.2725 92.4775 54.2725 83.039C54.2725 76.8563 51.0819 74.0609 46.477 74.0609Z" fill="#3F2212"/>
<path d="M69.4359 91.0963C69.4359 91.5238 66.9032 96.3582 66.9032 98.8904C66.9032 99.8113 67.2321 100.403 68.1531 100.403C69.7649 100.403 72.6265 98.1669 74.5014 94.2534L74.9948 94.5823C73.3501 98.6931 70.0609 101.554 67.3637 101.554C65.3573 101.554 64.6994 100.305 64.6994 98.726C64.6994 98.134 64.7981 97.4763 64.9626 96.8186C63.5482 99.318 61.8707 101.521 59.9958 101.521C58.2854 101.521 57.1342 99.7455 57.1342 97.6736C57.1342 94.7796 59.338 89.0244 60.4892 89.0244C60.7523 89.0244 61.476 89.3204 61.9036 89.7808C61.0813 91.0634 59.3708 94.8782 59.3708 97.4105C59.3708 98.0683 59.4695 99.9428 60.7523 99.9428C63.1206 99.9428 66.2454 92.8722 67.6597 90.011C68.0216 90.1754 69.4359 90.4385 69.4359 91.0963Z" fill="#3F2212"/>
<path d="M76.9025 93.5628C76.6065 94.944 76.4091 96.2595 76.4091 97.4105C76.4091 99.3837 76.9683 100.337 78.0866 100.337C80.0931 100.337 82.2311 97.2132 83.5797 94.2534L84.1388 94.5494C82.1324 98.8904 79.7313 101.554 77.0012 101.554C74.8303 101.554 73.9422 99.877 73.9422 97.6407C73.9422 90.3399 83.185 73.0414 85.7835 73.0414C86.5729 73.0414 87.0334 74.7844 87.0334 75.8697C87.0334 79.2241 82.4613 88.9586 76.9025 93.5628ZM77.2314 92.2473C81.639 87.8076 85.8164 79.2241 85.8164 76.6919C85.8164 76.1986 85.6519 76.067 85.5532 76.067C84.5336 76.0999 79.3366 84.9135 77.2314 92.2473Z" fill="#3F2212"/>
<path d="M91.5725 100.337C91.6712 100.732 91.7369 101.16 91.7369 101.587C91.7369 106.191 87.2965 111.058 82.6586 111.058C81.1127 111.058 80.1588 110.532 80.1588 109.118C80.1588 105.862 85.0598 103.791 89.4674 100.864C89.4674 99.0219 88.8095 97.6078 86.836 96.0292C89.5002 95.2729 90.9804 92.4117 90.9804 90.4385C90.9804 89.2875 90.487 88.4324 89.5002 88.4324C86.9675 88.4324 85.4545 91.5895 83.7112 95.3057L83.2507 94.9111C84.9282 90.3727 86.5728 86.9525 90.0265 86.9525C91.7369 86.9525 93.1842 88.1693 93.1842 90.0768C93.1842 92.8392 90.9804 95.0098 88.7108 96.1608C90.0265 97.1803 90.9146 98.3313 91.3751 99.581C93.2829 98.134 94.8617 96.391 95.5853 94.2205L96.0129 94.6809C95.2564 96.983 93.6118 98.7917 91.5725 100.337ZM89.4016 101.719C85.3558 104.317 81.1785 106.125 81.1785 108.691C81.1785 109.579 81.6719 109.94 82.3626 109.94C84.2375 109.94 88.9082 106.981 89.4016 101.719Z" fill="#3F2212"/>
<path d="M107.262 91.0963C107.262 91.5238 104.73 96.3582 104.73 98.8904C104.73 99.8113 105.058 100.403 105.979 100.403C107.591 100.403 110.453 98.1669 112.328 94.2534L112.821 94.5823C111.176 98.6931 107.887 101.554 105.19 101.554C103.184 101.554 102.526 100.305 102.526 98.726C102.526 98.134 102.624 97.4763 102.789 96.8186C101.374 99.318 99.697 101.521 97.8221 101.521C96.1117 101.521 94.9604 99.7455 94.9604 97.6736C94.9604 94.7796 97.1642 89.0244 98.3155 89.0244C98.5786 89.0244 99.3023 89.3204 99.7299 89.7808C98.9075 91.0634 97.1971 94.8782 97.1971 97.4105C97.1971 98.0683 97.2958 99.9428 98.5786 99.9428C100.947 99.9428 104.072 92.8722 105.486 90.011C105.848 90.1754 107.262 90.4385 107.262 91.0963Z" fill="#3F2212"/>
<path d="M111.67 95.5688C112.361 94.2533 113.643 91.5895 114.762 88.3337C114.531 88.1035 114.367 87.8075 114.367 87.4129C114.367 85.9001 115.551 84.8148 115.979 84.8148C116.505 84.8148 116.505 85.4725 116.505 85.7356C116.505 85.9987 116.077 86.9853 116.077 87.1498C116.077 88.5639 119.959 89.1887 119.959 92.4445C119.959 94.7795 118.051 97.2789 118.051 98.8574C118.051 99.7783 118.577 100.008 119.202 100.008C121.603 100.008 124.728 96.5554 125.682 94.352L126.175 94.7466C124.728 97.9695 121.472 101.39 118.215 101.39C116.505 101.39 115.452 100.403 115.452 98.9232C115.452 96.6869 117.558 93.8258 117.558 91.8197C117.558 90.1754 116.373 89.6163 115.42 88.9257C114.235 91.9184 112.821 94.8453 112.032 96.2265L111.67 95.5688Z" fill="#3F2212"/>
<path d="M137.063 93.2997C137.063 94.1877 134.859 96.7528 134.859 98.5945C134.859 99.3509 135.254 100.272 136.142 100.272C137.523 100.272 139.957 98.2985 142.227 94.2534L142.622 94.6481C141.01 98.7589 137.786 101.554 135.089 101.554C133.214 101.554 132.359 100.239 132.359 98.8905C132.359 98.5945 132.392 98.1998 132.458 97.7723C130.254 100.699 128.577 102.179 126.702 102.179C125.09 102.179 123.873 101.16 123.873 99.022C123.873 94.4836 129.465 87.3472 134.398 87.3472C136.372 87.3472 137.852 88.4983 137.852 90.2084C137.852 91.4581 137.096 91.8527 135.977 91.8527C136.076 91.4252 136.175 90.9319 136.175 90.5372C136.175 89.3862 135.681 88.3996 134.3 88.3996C130.715 88.3996 126.471 95.4702 126.471 99.1536C126.471 100.173 126.8 100.633 127.491 100.633C129.859 100.633 133.609 95.0756 135.484 92.346C136.01 92.4118 137.063 92.7078 137.063 93.2997Z" fill="#3F2212"/>
<path d="M143.214 93.9245C144.727 92.2473 146.042 90.4385 146.963 88.3995V87.9391C146.963 86.0646 147.72 85.3411 148.444 85.3411C148.871 85.3411 149.069 85.5713 149.069 85.8344C149.069 86.0975 148.838 86.6236 148.838 87.5116C148.838 90.011 150.812 93.1681 150.812 96.687C150.812 97.3776 150.746 97.9696 150.582 98.5615C152.325 98.2656 153.904 97.1145 155.384 94.2534L155.713 94.648C154.759 97.4105 152.654 98.8246 150.384 99.1864C149.595 101.357 147.687 102.344 145.516 102.344C141.931 102.344 140.747 99.6468 140.747 97.3447C140.78 94.352 142.786 94.3849 143.214 93.9245ZM147.983 99.1535C145.845 98.726 144.102 97.279 143.312 95.9964C142.687 96.0293 142.49 96.5226 142.49 97.3118C142.49 99.1535 143.641 100.995 145.615 100.995C146.207 100.995 147.424 100.831 147.983 99.1535ZM147.161 89.8794C145.977 91.8198 144.628 93.6943 143.477 94.8125C144.233 96.4568 145.878 98.0353 148.18 98.5286C148.246 98.0353 148.345 97.5092 148.345 96.7528C148.345 94.352 147.523 91.9513 147.161 89.8794Z" fill="#3F2212"/>
<path d="M84.1717 118.524C82.3956 118.524 80.8167 121.615 80.8167 122.865C80.8167 123.358 81.0469 123.654 81.4088 123.654C82.2969 123.654 83.9086 121.878 84.9612 119.116C86.1782 115.926 87.6584 112.078 88.5793 112.078C88.7438 112.078 88.9083 112.242 88.9083 112.44C88.9083 113.492 85.1256 119.51 85.1256 122.766C85.1256 123.391 85.1256 123.687 85.4874 123.687C86.1782 123.687 87.3294 122.766 88.0202 121.253L88.2175 121.418C87.5926 123.128 86.1453 124.378 85.0269 124.378C84.2046 124.378 83.9415 123.72 83.9415 123.128C83.9415 122.733 84.0731 122.141 84.2704 121.352C83.185 123.128 81.9022 124.41 80.9154 124.41C80.3562 124.41 79.6655 123.983 79.6655 123.029C79.6655 121.188 82.0666 117.998 84.106 117.998C84.5665 117.998 84.8296 118.162 84.8296 118.491C84.8296 118.589 84.8296 118.655 84.7967 118.721C84.6651 118.589 84.4678 118.524 84.1717 118.524Z" fill="#3F2212"/>
<path d="M88.6122 122.207C88.5465 122.404 88.5465 122.635 88.5465 122.799C88.5465 123.457 88.8425 124.18 89.8622 124.18C91.2765 124.18 92.7238 122.865 93.5461 121.253L93.7434 121.418C92.8554 123.391 91.145 124.674 89.5003 124.674C88.1517 124.674 87.4939 123.851 87.4939 122.766C87.4939 120.793 89.7306 118.03 91.6712 118.03C92.1975 118.03 92.6909 118.228 92.6909 119.017C92.6909 120.694 90.4871 122.043 88.6122 122.207ZM88.7109 121.911C89.895 121.484 92.0002 120.333 92.0002 118.918C92.0002 118.655 91.9344 118.524 91.6383 118.524C90.5858 118.524 89.1385 120.333 88.7109 121.911Z" fill="#3F2212"/>
<path d="M99.1378 120.99C99.0062 121.582 98.9075 122.174 98.9075 122.667C98.9075 123.523 99.1707 123.95 99.6312 123.95C100.519 123.95 101.44 122.602 101.999 121.319L102.263 121.451C101.407 123.325 100.355 124.476 99.1707 124.476C98.2497 124.476 97.855 123.753 97.855 122.766C97.855 119.609 101.868 112.111 102.986 112.111C103.315 112.111 103.545 112.867 103.545 113.328C103.512 114.775 101.539 118.984 99.1378 120.99ZM99.3023 120.431C101.21 118.491 103.019 114.808 103.019 113.689C103.019 113.492 102.953 113.426 102.888 113.426C102.46 113.426 100.19 117.241 99.3023 120.431Z" fill="#3F2212"/>
<path d="M106.966 120.859C106.966 121.253 106.012 122.339 106.012 123.161C106.012 123.49 106.177 123.884 106.571 123.884C107.164 123.884 108.216 123.029 109.203 121.286L109.367 121.451C108.677 123.227 107.262 124.443 106.111 124.443C105.289 124.443 104.927 123.851 104.927 123.292C104.927 123.161 104.927 122.996 104.993 122.799C104.039 124.082 103.315 124.706 102.493 124.706C101.802 124.706 101.276 124.246 101.276 123.325C101.276 121.352 103.71 118.261 105.848 118.261C106.703 118.261 107.361 118.754 107.361 119.51C107.361 120.037 107.032 120.201 106.539 120.201C106.571 120.037 106.637 119.806 106.637 119.609C106.637 119.116 106.407 118.688 105.815 118.688C104.269 118.688 102.427 121.747 102.427 123.358C102.427 123.819 102.591 124.016 102.888 124.016C103.907 124.016 105.519 121.615 106.341 120.431C106.506 120.497 106.966 120.629 106.966 120.859Z" fill="#3F2212"/>
<path d="M53.2199 145.721C53.2199 149.141 54.6014 152.397 58.088 152.397C61.7719 152.397 65.6862 148.911 67.4952 144.965L67.9886 145.327C65.6533 149.865 61.9035 153.614 57.2657 153.614C52.3318 153.614 50.4569 149.404 50.4569 145.162C50.4569 136.02 58.1209 125.693 64.6994 125.693C66.5742 125.693 67.89 126.515 67.89 128.686C67.89 131.383 65.7848 136.052 63.8771 136.052C63.4824 136.052 63.0876 135.855 62.7916 135.263C64.206 133.685 66.5085 130.264 66.5085 128.291C66.5085 127.37 65.9822 126.746 64.7981 126.746C59.7984 126.713 53.2199 137.927 53.2199 145.721Z" fill="#3F2212"/>
<path d="M72.3962 139.604C72.3962 140.755 68.778 144.932 68.778 148.188C68.778 149.865 69.3372 150.259 70.4884 150.259C72.0344 150.259 73.8435 148.911 75.817 144.965L76.1131 145.326C74.7645 149.306 72.0015 151.476 69.3043 151.476C67.4952 151.476 66.64 150.194 66.64 148.582C66.64 145.951 69.2714 138.848 71.6397 138.848C72.0673 138.848 72.3962 139.111 72.3962 139.604ZM72.0673 134.474C72.0673 133.52 73.4817 132.665 74.6 132.665C75.2907 132.665 75.7512 132.928 75.7512 133.75C75.7512 134.605 74.6 135.625 73.5145 135.625C72.7251 135.625 72.0673 135.263 72.0673 134.474Z" fill="#3F2212"/>
<path d="M86.4413 142.104C86.4413 142.498 84.1059 146.872 84.1059 149.207C84.1059 150.029 84.402 150.588 85.2572 150.588C86.7044 150.588 89.3358 148.549 91.0462 144.965L91.5067 145.261C90.0266 149.01 87.0005 151.608 84.5335 151.608C82.6916 151.608 82.0995 150.457 82.0995 149.043C82.0995 148.484 82.1982 147.892 82.3297 147.3C81.0469 149.602 79.5339 151.608 77.7906 151.608C76.2446 151.608 75.1921 149.996 75.1921 148.122C75.1921 145.491 77.1985 140.262 78.2511 140.262C78.4813 140.262 79.1392 140.525 79.5339 140.953C78.7774 142.136 77.1985 145.59 77.1985 147.925C77.1985 148.516 77.2972 150.259 78.4484 150.259C80.5864 150.259 83.4481 143.814 84.7638 141.216C85.1585 141.249 86.4413 141.512 86.4413 142.104Z" fill="#3F2212"/>
<path d="M99.3023 139.144C95.5525 139.144 92.2633 145.622 92.2633 148.286C92.2633 149.339 92.7567 149.964 93.5132 149.964C95.3881 149.964 98.776 146.214 100.98 140.426C103.545 133.75 106.67 125.627 108.578 125.627C108.973 125.627 109.269 125.989 109.269 126.417C109.269 128.587 101.309 141.281 101.309 148.122C101.309 149.437 101.309 150.062 102.098 150.062C103.513 150.062 105.979 148.089 107.427 144.932L107.854 145.228C106.506 148.78 103.48 151.411 101.144 151.411C99.4009 151.411 98.8747 150.029 98.8747 148.812C98.8747 148.023 99.1049 146.708 99.5325 145.096C97.2958 148.812 94.5657 151.542 92.4606 151.542C91.2765 151.542 89.8621 150.687 89.8621 148.648C89.8621 144.8 94.8947 138.059 99.1707 138.059C100.125 138.059 100.684 138.42 100.684 139.144C100.684 139.308 100.651 139.44 100.618 139.637C100.388 139.308 99.9272 139.144 99.3023 139.144Z" fill="#3F2212"/>
<path d="M117.919 144.11C117.919 144.899 115.913 147.267 115.913 148.911C115.913 149.602 116.275 150.424 117.097 150.424C118.347 150.424 120.551 148.615 122.623 144.965L122.985 145.326C121.538 149.076 118.577 151.641 116.143 151.641C114.433 151.641 113.643 150.424 113.643 149.207C113.643 148.944 113.676 148.582 113.742 148.188C111.736 150.851 110.223 152.2 108.512 152.2C107.065 152.2 105.947 151.279 105.947 149.339C105.947 145.228 111.045 138.716 115.551 138.716C117.36 138.716 118.709 139.769 118.709 141.314C118.709 142.465 118.018 142.794 116.998 142.794C117.097 142.399 117.163 141.972 117.163 141.577C117.163 140.525 116.702 139.637 115.452 139.637C112.196 139.637 108.315 146.083 108.315 149.437C108.315 150.358 108.611 150.786 109.236 150.786C111.374 150.786 114.827 145.721 116.505 143.222C116.933 143.287 117.919 143.583 117.919 144.11Z" fill="#3F2212"/>
<path d="M130.846 139.144C127.096 139.144 123.807 145.622 123.807 148.286C123.807 149.339 124.301 149.964 125.057 149.964C126.932 149.964 130.32 146.214 132.524 140.426C135.089 133.75 138.214 125.627 140.122 125.627C140.516 125.627 140.813 125.989 140.813 126.417C140.813 128.587 132.853 141.281 132.853 148.122C132.853 149.437 132.853 150.062 133.642 150.062C135.056 150.062 137.523 148.089 138.971 144.932L139.398 145.228C138.05 148.78 135.023 151.411 132.688 151.411C130.945 151.411 130.386 150.029 130.386 148.812C130.386 148.023 130.616 146.708 131.043 145.096C128.807 148.812 126.077 151.542 123.972 151.542C122.787 151.542 121.373 150.687 121.373 148.648C121.373 144.8 126.406 138.059 130.682 138.059C131.636 138.059 132.195 138.42 132.195 139.144C132.195 139.308 132.162 139.44 132.129 139.637C131.932 139.308 131.471 139.144 130.846 139.144Z" fill="#3F2212"/>
<path d="M39.6683 58.7028C39.5696 58.9659 39.5368 59.229 39.5368 59.4592C39.5368 60.3142 40.0959 60.972 41.2472 61.531C42.6944 62.2217 45.2929 62.6163 49.0427 62.7479C52.7924 62.8465 55.3251 64.2278 56.575 66.8587C55.5883 65.8392 53.0556 65.3459 48.9111 65.3459C48.2533 65.3459 47.5954 65.3459 46.8718 65.3788C46.4113 65.4117 45.9837 65.4117 45.5561 65.4117C41.0169 65.4117 38.55 64.4908 38.0895 62.6492C37.9579 62.1559 37.8921 61.7284 37.8921 61.3337C37.8592 60.0183 38.4842 59.1632 39.6683 58.7028Z" fill="#3F2212"/>
<path d="M50.1282 53.1449C50.5229 53.0463 50.9176 53.0134 51.2794 53.0134C52.1675 53.0134 52.924 53.3093 53.4503 53.9013C53.9108 54.3617 54.1082 54.8879 54.1082 55.4141C54.1082 55.8087 53.9766 56.2363 53.7463 56.6638C53.2859 56.039 52.8254 55.743 52.332 55.743C52.2004 55.743 52.0688 55.7759 51.9701 55.8087C51.3781 55.9732 51.0821 56.4007 51.0821 57.0256V57.19C51.1478 57.9135 52.2004 59.0645 54.2726 60.676C56.3448 62.2874 57.4303 64.162 57.4961 66.2667C56.6738 64.5566 54.7331 62.8465 51.707 61.1035C48.9112 59.5249 47.5297 57.9793 47.5297 56.4665C47.5297 56.3349 47.5297 56.2034 47.5626 56.0718C47.8257 54.4275 48.6809 53.4409 50.1282 53.1449Z" fill="#3F2212"/>
<path d="M141.437 56.039C141.437 56.1705 141.47 56.3021 141.47 56.4336C141.47 57.9464 140.089 59.4592 137.293 61.0707C134.234 62.8137 132.293 64.5238 131.471 66.2339C131.57 64.0962 132.655 62.2217 134.695 60.6431C136.767 59.0317 137.819 57.8807 137.885 57.1571V56.9927C137.885 56.3679 137.589 55.9732 136.997 55.7759C136.865 55.743 136.734 55.7101 136.602 55.7101C136.109 55.7101 135.648 56.0061 135.188 56.631C134.958 56.2034 134.826 55.7759 134.826 55.3813C134.826 54.8551 135.056 54.3618 135.484 53.8685C136.043 53.2765 136.767 52.9805 137.688 52.9805C138.05 52.9805 138.411 53.0134 138.839 53.1121C140.319 53.4409 141.174 54.4275 141.437 56.039Z" fill="#3F2212"/>
<path d="M149.299 58.7028C150.483 59.1632 151.075 60.0512 151.075 61.3338C151.075 61.7284 151.009 62.1559 150.91 62.6163C150.45 64.458 147.983 65.3788 143.444 65.3788C143.049 65.3788 142.589 65.3459 142.161 65.3459C141.437 65.3459 140.747 65.313 140.089 65.313C135.944 65.313 133.379 65.8064 132.425 66.8258C133.708 64.1949 136.208 62.8137 139.957 62.715C143.707 62.6163 146.338 62.1888 147.786 61.4982C148.904 60.972 149.463 60.2814 149.463 59.4263C149.43 59.1961 149.397 58.9659 149.299 58.7028Z" fill="#3F2212"/>
<path d="M92.8883 27.7564C92.987 27.8551 92.8883 28.0195 92.7896 28.0853C92.691 28.9403 92.5923 29.7625 92.5265 30.6175C92.4936 31.1437 92.691 31.5384 93.283 31.5713C96.4407 31.7686 99.2695 32.9854 102.098 34.2022C105.651 35.7479 109.006 37.6553 111.933 40.2534C115.387 43.2789 116.571 47.028 115.749 51.4348C115.091 54.8551 114.334 57.8149 113.578 61.2022C113.446 61.827 112.394 62.4848 111.703 62.4848C108.545 62.4519 106.144 62.4848 102.986 62.5177C100.223 62.5177 97.4604 62.5506 94.6974 62.5506C91.6055 62.5506 88.5465 62.5506 85.4546 62.5834C82.593 62.5834 79.7313 62.6163 76.8697 62.6163C73.8765 62.6163 70.8504 62.6492 67.8572 62.6163C67.298 62.6163 67.1006 62.715 67.1664 63.307C67.298 64.2607 67.3638 65.2144 67.4296 66.1681C67.4624 66.5956 67.594 66.7929 68.0874 66.7929C70.5543 66.7601 73.0213 66.7601 75.5211 66.7929C79.6984 66.8258 83.8758 66.8587 88.0202 66.8916C91.2437 66.9245 94.4672 66.9245 97.6577 66.9574C101.177 66.9903 104.664 67.056 108.183 67.056C110.683 67.0889 113.183 67.1218 115.716 67.056C117.163 67.0232 117.689 66.2339 117.788 64.7869C118.117 59.3605 118.413 53.9014 119.564 48.5737C119.992 46.5676 120.946 44.8904 122.557 43.5749C123.511 42.8185 124.399 41.9964 125.254 41.1742C127.327 39.201 127.228 37.2607 125.024 35.419C123.116 33.8076 120.913 32.6565 118.709 31.5055C113.545 28.8746 108.216 26.6383 102.855 24.4677C99.7299 23.1851 96.1118 24.1389 93.9409 26.5396C93.7764 26.704 93.6119 26.9013 93.3488 26.9671C93.3159 27.0987 92.987 27.6577 92.8883 27.7564Z" fill="#EDCCA9"/>
<path fill-rule="evenodd" clip-rule="evenodd" d="M97.3945 26.0463C98.3155 25.1583 99.3023 25.2241 100.223 25.2899C102.592 25.4543 104.795 26.2107 106.933 27.1973C111.769 29.4007 116.67 31.4726 121.34 33.972C122.097 34.3666 122.853 34.7613 123.412 35.419C124.268 36.3727 124.103 37.2278 122.952 37.754C122.261 38.0828 121.505 38.3459 120.814 38.6748C118.972 39.5956 117.163 40.5493 116.472 42.9172C115.979 41.3715 116.571 39.9245 118.084 38.7406C118.972 38.0499 119.926 37.3922 120.946 36.8989C121.209 36.7674 121.571 36.7016 121.571 36.4056C121.571 36.0438 121.176 35.9452 120.913 35.8136C118.413 34.6297 115.979 33.084 113.446 31.9659C110.848 30.8149 108.315 29.7625 105.782 28.5128C103.217 27.2631 100.585 26.0792 97.3945 26.0463Z" fill="#402212"/>
<path fill-rule="evenodd" clip-rule="evenodd" d="M97.7564 29.4336C100.848 29.4994 103.677 30.3873 106.21 32.1303C108.71 33.8733 110.815 36.1096 113.117 38.1157C113.315 38.313 113.742 38.5432 113.479 38.8721C113.282 39.1352 112.953 38.8721 112.722 38.7734C111.341 38.3459 109.894 37.3264 108.841 36.4385C105.355 33.5445 101.934 31.1766 97.3288 30.2887C97.0656 30.2229 96.638 30.19 96.6051 29.7625C96.5722 29.5981 96.9012 29.4994 97.7564 29.4336Z" fill="#402212"/>
<path fill-rule="evenodd" clip-rule="evenodd" d="M113.841 64.3264C114.235 62.8465 114.63 61.7941 114.959 60.4129C115.781 57.1571 116.11 53.8027 116.538 50.4811C116.67 49.5603 116.834 48.6723 116.998 47.7515C117.031 47.5213 117.064 47.3569 117.393 47.3897C117.623 47.4226 117.656 47.5213 117.722 47.7186C118.215 49.2972 118.183 50.9744 118.117 52.5859C117.985 55.4141 117.591 58.2095 116.637 60.9062C116.242 62.0572 115.617 63.0767 114.926 64.0633C114.729 64.3593 114.466 64.3593 113.841 64.3264Z" fill="#402212"/>
<path d="M93.3824 26.9676C93.3824 26.9346 93.3824 26.9346 93.3824 26.9676C93.3493 26.9346 93.3162 26.9015 93.2832 26.8685C93.2832 26.8685 93.2832 26.8685 93.2501 26.9015C93.2832 26.9015 93.3162 26.9346 93.3824 26.9676Z" fill="#725B3D"/>
<path d="M125.978 33.4787C123.544 31.6041 120.748 30.3216 118.018 29.039C113.512 26.9342 108.874 25.1912 104.203 23.4811C102.131 22.7247 100.026 22.363 97.8879 23.0865C95.9144 23.7771 94.1711 24.8295 93.283 26.8684C93.283 26.8684 93.283 26.8356 93.3159 26.8356C93.3488 26.8684 93.3817 26.9013 93.4474 26.9013C93.4474 26.9013 93.4474 26.9013 93.4474 26.9342C93.7106 26.9013 93.8751 26.704 94.0395 26.5067C96.2433 24.106 99.8286 23.1522 102.953 24.4348C108.315 26.6054 113.643 28.8417 118.808 31.4726C121.011 32.5907 123.215 33.7747 125.123 35.3861C127.327 37.2278 127.392 39.1352 125.353 41.1413C124.498 41.9635 123.61 42.7856 122.656 43.542C121.011 44.8246 120.09 46.5347 119.663 48.5408C118.511 53.8684 118.215 59.3276 117.887 64.7539C117.788 66.201 117.294 66.9903 115.814 67.0231C113.314 67.0889 110.815 67.056 108.282 67.0231C104.762 66.9903 101.276 66.9574 97.7564 66.9245C94.5329 66.8916 91.3094 66.8916 88.1189 66.8587C83.9415 66.8258 79.7642 66.7929 75.6197 66.76C73.1528 66.76 70.6859 66.76 68.186 66.76C67.7256 66.76 67.5611 66.5627 67.5282 66.1352C67.4624 65.1815 67.3966 64.2278 67.2651 63.274C67.1993 62.6821 67.3966 62.5834 67.9558 62.5834C70.949 62.6163 73.9751 62.5834 76.9683 62.5834C79.83 62.5834 82.6916 62.5505 85.5533 62.5505C88.6451 62.5505 91.7041 62.5505 94.796 62.5177C97.559 62.5177 100.322 62.4848 103.085 62.4848C106.243 62.4848 108.15 62.6163 111.308 62.4519C112.657 62.3861 113.479 62.0244 113.709 60.9391C114.4 57.5518 115.156 54.8222 115.814 51.4019C116.67 46.9951 115.452 43.246 111.999 40.2205C109.071 37.6553 105.716 35.715 102.164 34.1693C99.3352 32.9525 96.4736 31.7357 93.3488 31.5384C92.7567 31.5055 92.5593 31.1108 92.5922 30.5846C92.658 29.7296 92.7567 28.9074 92.8554 28.0524C92.9541 27.9866 93.0527 27.8222 92.9541 27.7235C92.9541 27.7235 92.9541 27.7235 92.9212 27.6906C92.8883 27.6906 92.7238 27.9537 92.6909 27.9866C91.8357 29.039 91.8357 30.3873 91.5397 31.6041C91.0463 28.2168 92.0002 25.1255 93.3159 22.067C93.0198 22.0999 92.8554 22.1985 92.7238 22.2972C92.4607 22.5274 92.2304 22.7905 92.0002 23.0536C90.2569 25.0597 89.2043 27.4933 89.2372 30.0256C89.2372 32.4921 88.1847 33.4458 86.1453 34.3995C81.9022 36.3727 77.8235 38.6419 73.6791 40.8124C70.5543 42.4568 68.6794 43.7393 65.456 45.2192C63.91 45.9099 63.6469 47.324 63.6798 47.9488C63.91 51.2375 64.239 53.6054 64.3705 56.894C64.535 60.676 64.9955 63.5043 65.2257 67.2862C65.2915 68.1742 66.1467 68.9963 67.2322 68.9963C69.6004 68.9963 70.8832 69.0292 73.2515 69.0621C77.0341 69.1279 80.8167 69.2265 84.5994 69.2594C87.9873 69.2923 91.3752 69.2594 94.796 69.2594C98.3813 69.2923 101.934 69.3252 105.519 69.3581C108.611 69.391 111.67 69.3252 114.762 69.4568C118.314 69.6212 120.321 67.7466 120.419 64.162C120.551 59.6565 120.88 55.1839 121.57 50.7442C121.899 48.6395 122.294 46.5347 124.136 45.0877C124.695 44.6602 125.222 44.1997 125.748 43.7064C127.064 42.4568 128.511 41.2728 128.873 39.3983C129.333 36.866 127.985 35.0244 125.978 33.4787ZM89.2701 34.1364C89.007 34.7284 88.5794 34.827 88.2833 35.0244C86.869 35.9781 86.1124 37.7868 86.4743 39.4969C86.869 41.2399 87.9873 42.391 89.6977 42.8185C91.3423 43.246 93.0198 42.6212 94.0066 41.2399C95.3881 39.3325 94.5329 35.7807 92.4278 34.6626C92.0331 34.4653 91.5068 34.3995 91.5068 33.7747C91.5068 33.3471 91.3094 32.8538 91.8357 32.5579C92.3949 32.229 92.5922 32.7223 92.9212 32.9196C95.125 34.3666 97.559 35.3532 99.8944 36.5371C103.282 38.2801 106.67 39.9574 109.565 42.4896C110.683 43.4762 111.703 44.5615 112.295 46.1072C97.5261 45.2521 82.889 45.3508 68.0545 46.173C75.1921 42.095 82.1324 38.1486 89.2701 34.1364ZM66.5743 55.8745C66.4756 53.3423 65.8836 50.8758 65.7191 48.3764C65.6533 47.5542 65.7191 47.2911 66.7059 47.3898C70.4556 47.7844 73.3173 47.7186 77.067 47.7844C80.4549 47.8173 84.8296 47.8173 88.2175 47.8502C90.5529 47.8502 93.6777 47.8831 96.0131 47.8173C98.9405 47.7515 100.421 47.6529 103.348 47.5213C105.881 47.4226 109.104 47.5213 111.67 47.2911C112.624 47.2253 112.887 47.4884 112.887 48.4421C112.854 52.0597 111.604 55.447 111.045 58.9659C110.979 59.3934 110.782 59.525 110.321 59.525C107.361 59.5579 104.368 59.6565 101.407 59.7223C96.638 59.8209 91.8686 59.8538 87.0992 59.9525C83.2837 60.0183 79.4682 60.1827 75.6526 60.2814C72.9883 60.3471 70.3569 60.3471 67.6927 60.4129C67.1006 60.4129 66.969 60.2156 66.9361 59.6894C66.8046 58.4397 66.673 57.1571 66.5743 55.8745Z" fill="#402212"/>
<path fill-rule="evenodd" clip-rule="evenodd" d="M66.5743 55.8746C66.4756 53.3423 65.8836 50.8758 65.7191 48.3764C65.6533 47.5542 65.7191 47.2911 66.7059 47.3898C70.7845 47.6529 74.1725 47.7187 77.9551 47.7844C81.343 47.8173 84.3362 47.8173 87.757 47.8173C90.0924 47.8173 92.8554 47.8502 95.1907 47.8173C98.1182 47.7516 101.111 47.62 104.039 47.4885C106.572 47.3898 109.104 47.5214 111.637 47.2911C112.591 47.2254 112.854 47.4885 112.854 48.4422C112.821 52.0597 111.571 55.447 111.012 58.9659C110.946 59.3934 110.749 59.525 110.288 59.525C107.328 59.5579 104.335 59.6565 101.375 59.7223C96.6051 59.821 91.8357 59.8539 87.0663 59.9525C83.2508 60.0183 79.4353 60.1827 75.6197 60.2814C72.9554 60.3472 70.324 60.3472 67.6598 60.4129C67.0677 60.4129 66.9361 60.2156 66.9032 59.6894C66.8046 58.4397 66.673 57.1572 66.5743 55.8746Z" fill="#F2EABB"/>
<path fill-rule="evenodd" clip-rule="evenodd" d="M112.328 46.0743C97.559 45.2193 82.9219 45.3179 68.0874 46.1401C75.225 42.095 82.1325 38.1815 89.2701 34.1365C89.007 34.7284 88.5794 34.8271 88.2833 35.0244C86.869 35.9781 86.1124 37.7869 86.4743 39.497C86.869 41.24 87.9873 42.391 89.6977 42.8186C91.3423 43.2461 93.0199 42.6212 94.0066 41.24C95.3881 39.3326 94.5329 35.7808 92.4278 34.6626C92.0331 34.4653 91.5068 34.3996 91.5068 33.7747C91.5068 33.3472 91.3094 32.8539 91.8357 32.5579C92.3949 32.229 92.5922 32.7223 92.9212 32.9197C95.125 34.3667 97.559 35.3533 99.8944 36.5372C103.282 38.2802 106.67 39.9574 109.565 42.4897C110.716 43.4434 111.736 44.4958 112.328 46.0743Z" fill="#EF7B84"/>
<path fill-rule="evenodd" clip-rule="evenodd" d="M90.52 35.9452C91.8686 35.8136 93.7435 37.1949 93.8093 38.313C93.875 39.4641 92.2633 41.0755 90.9476 41.2071C89.5661 41.3715 88.1189 40.2205 88.0202 38.8721C87.8886 37.2936 88.9083 36.1096 90.52 35.9452Z" fill="#A1333E"/>
</svg>
