<svg width="189" height="189" viewBox="0 0 189 189" fill="none" xmlns="http://www.w3.org/2000/svg">
<path d="M94.5329 178.312C140.747 178.312 178.211 140.854 178.211 94.648C178.211 48.4417 140.747 10.9841 94.5329 10.9841C48.3186 10.9841 10.8545 48.4417 10.8545 94.648C10.8545 140.854 48.3186 178.312 94.5329 178.312Z" fill="white"/>
<path fill-rule="evenodd" clip-rule="evenodd" d="M11.0848 94.4507C11.0848 48.3106 48.4177 10.8855 94.5 10.8855C140.582 10.8855 177.915 48.3106 177.915 94.4507C177.915 140.591 140.582 178.016 94.5 178.016C48.4177 178.016 11.0848 140.624 11.0848 94.4507ZM96.8025 186.698C97.7234 188.145 98.9405 188.934 100.223 188.934C101.638 188.934 102.92 187.948 103.71 186.238C104.269 185.054 105.124 184.396 106.045 184.396C106.802 184.396 107.624 184.856 108.282 185.678C109.269 186.862 110.42 187.52 111.571 187.52C113.117 187.52 114.433 186.336 115.091 184.396C115.551 183.015 116.406 182.258 117.426 182.258C118.117 182.258 118.873 182.62 119.564 183.245C120.551 184.166 121.636 184.659 122.656 184.659C124.399 184.659 125.715 183.278 126.143 181.074C126.439 179.529 127.327 178.641 128.478 178.641C129.103 178.641 129.794 178.904 130.451 179.364C131.405 180.055 132.392 180.417 133.28 180.417C135.221 180.417 136.569 178.838 136.734 176.404C136.865 174.694 137.721 173.675 139.036 173.675C139.563 173.675 140.188 173.839 140.78 174.168C142.687 175.188 144.497 175.089 145.615 173.905C146.371 173.116 146.733 171.899 146.635 170.452C146.569 169.432 146.832 168.61 147.325 168.051C147.983 167.361 149.134 167.229 150.384 167.722C152.292 168.479 154.068 168.183 155.022 166.999C155.779 166.111 156.009 164.795 155.713 163.283C155.515 162.23 155.68 161.309 156.173 160.717C156.765 159.994 157.818 159.764 159.101 160.093C161.009 160.586 162.653 160.158 163.508 158.942C164.232 157.955 164.331 156.574 163.837 154.995C163.475 153.91 163.574 152.956 164.035 152.298C164.561 151.608 165.548 151.279 166.798 151.41C168.738 151.641 170.186 151.082 170.942 149.898C171.633 148.812 171.633 147.365 170.876 145.787C170.383 144.702 170.35 143.715 170.81 142.991C171.271 142.268 172.159 141.873 173.376 141.873C175.185 141.873 176.567 141.216 177.224 140.032C177.882 138.848 177.718 137.335 176.731 135.789C176.106 134.77 175.942 133.783 176.304 133.027C176.665 132.27 177.521 131.744 178.705 131.58C180.514 131.35 181.764 130.527 182.29 129.245C182.783 127.995 182.422 126.515 181.27 125.101C180.514 124.18 180.251 123.227 180.514 122.404C180.777 121.582 181.566 120.99 182.718 120.694C184.461 120.234 185.645 119.247 185.974 117.932C186.303 116.616 185.777 115.202 184.461 113.952C183.606 113.13 183.211 112.21 183.375 111.387C183.54 110.565 184.231 109.842 185.349 109.414C187.026 108.756 188.046 107.638 188.243 106.29C188.408 104.942 187.684 103.593 186.237 102.541C185.283 101.817 184.757 100.962 184.823 100.14C184.888 99.285 185.481 98.4957 186.533 97.9367C188.112 97.0487 189 95.8319 189 94.4507C189 93.1023 188.112 91.8526 186.533 90.9647C185.481 90.3727 184.888 89.5834 184.823 88.7613C184.757 87.9062 185.283 87.0512 186.237 86.3605C187.717 85.2753 188.408 83.9598 188.243 82.6114C188.079 81.2631 187.059 80.1449 185.349 79.4872C184.231 79.0268 183.54 78.3362 183.375 77.514C183.211 76.6918 183.606 75.771 184.461 74.9488C185.777 73.6991 186.336 72.285 185.974 70.9695C185.645 69.6541 184.494 68.6675 182.718 68.2071C181.566 67.9111 180.777 67.2862 180.514 66.497C180.251 65.6748 180.514 64.7211 181.27 63.8002C182.422 62.3861 182.783 60.9062 182.29 59.6565C181.797 58.4068 180.514 57.5847 178.738 57.3216C177.553 57.1571 176.698 56.6638 176.336 55.8745C175.975 55.1181 176.139 54.1315 176.764 53.1121C177.718 51.5664 177.915 50.0536 177.257 48.8697C176.6 47.6857 175.251 47.028 173.409 46.9951C172.225 46.9951 171.304 46.6005 170.843 45.877C170.383 45.1535 170.416 44.1669 170.909 43.0816C171.633 41.503 171.666 40.056 170.975 38.9708C170.218 37.7868 168.771 37.2278 166.83 37.458C165.581 37.5895 164.594 37.2935 164.068 36.57C163.607 35.9123 163.508 34.9586 163.87 33.8733C164.364 32.3276 164.232 30.9135 163.541 29.9269C162.686 28.743 161.041 28.3155 159.134 28.7759C157.884 29.1047 156.798 28.8745 156.206 28.151C155.713 27.5591 155.548 26.6711 155.746 25.5859C156.042 24.0402 155.779 22.7576 155.055 21.8697C154.068 20.6857 152.325 20.4227 150.417 21.1462C149.167 21.6395 148.016 21.5079 147.358 20.8173C146.865 20.2911 146.602 19.4361 146.667 18.4495C146.766 16.9695 146.404 15.7856 145.648 14.9963C144.529 13.8124 142.687 13.6809 140.813 14.7333C140.188 15.0621 139.596 15.2266 139.069 15.2266C137.754 15.2266 136.865 14.2071 136.767 12.497C136.602 10.0633 135.254 8.48477 133.313 8.48477C132.392 8.48477 131.405 8.84653 130.484 9.53715C129.826 10.0305 129.136 10.2935 128.511 10.2935C127.36 10.2935 126.471 9.37272 126.175 7.85993C125.748 5.65652 124.399 4.27527 122.689 4.27527C121.669 4.27527 120.584 4.76857 119.597 5.6894C118.906 6.34714 118.15 6.676 117.459 6.676C116.406 6.676 115.551 5.88672 115.124 4.53837C114.466 2.56516 113.15 1.41413 111.604 1.41413C110.453 1.41413 109.302 2.03898 108.315 3.25579C107.624 4.07795 106.835 4.53837 106.078 4.53837C105.157 4.53837 104.302 3.84775 103.743 2.69671C102.92 0.986602 101.671 0 100.256 0C98.9734 0 97.7564 0.789282 96.8354 2.26918C95.5526 4.27527 93.5132 4.27527 92.1975 2.26918C91.2765 0.822168 90.0595 0 88.7767 0C87.3623 0 86.0795 0.986602 85.2901 2.69671C84.7309 3.88063 83.8757 4.53837 82.9547 4.53837C82.1982 4.53837 81.4088 4.07795 80.7181 3.25579C79.7313 2.07186 78.5801 1.41413 77.4288 1.41413C75.8829 1.41413 74.5672 2.59805 73.9093 4.53837C73.4488 5.91961 72.5936 6.70889 71.574 6.70889C70.8832 6.70889 70.1267 6.34714 69.4359 5.72229C68.4492 4.80146 67.3637 4.30816 66.3441 4.30816C64.6008 4.30816 63.2851 5.6894 62.8575 7.89281C62.5614 9.43849 61.6733 10.3264 60.5221 10.3264C59.8971 10.3264 59.2064 10.0633 58.5485 9.57004C57.5947 8.87942 56.6079 8.51766 55.7198 8.51766C53.7792 8.51766 52.4306 10.0962 52.2661 12.5298C52.1345 14.24 51.2793 15.2594 49.9636 15.2594C49.4373 15.2594 48.8124 15.095 48.2203 14.7661C46.3455 13.7467 44.5035 13.8453 43.3851 15.0292C42.6286 15.8185 42.2668 17.0353 42.3655 18.4823C42.4313 19.5018 42.1681 20.324 41.6747 20.8502C41.0169 21.5737 39.8656 21.6723 38.6157 21.179C36.708 20.4227 34.9647 20.7186 33.9779 21.9026C33.2214 22.7905 32.9911 24.0731 33.2872 25.6188C33.4845 26.6711 33.32 27.592 32.8267 28.1839C32.2346 28.9074 31.1491 29.1376 29.8992 28.8088C27.9915 28.3155 26.3468 28.743 25.4916 29.9598C24.768 30.9464 24.6364 32.3276 25.1627 33.9062C25.4916 34.9915 25.4259 35.9452 24.9654 36.6029C24.4391 37.3264 23.4523 37.6224 22.2024 37.4909C20.2617 37.2607 18.8145 37.8197 18.058 39.0037C17.3672 40.0889 17.4001 41.5688 18.1237 43.1145C18.6171 44.1998 18.65 45.1864 18.1895 45.9099C17.729 46.6334 16.8409 47.028 15.6239 47.028C13.8148 47.028 12.4333 47.6857 11.7755 48.9026C11.1176 50.0865 11.2821 51.5993 12.2689 53.1449C12.8938 54.1644 13.0583 55.151 12.6965 55.9074C12.3347 56.6638 11.4795 57.19 10.2953 57.3544C8.48625 57.5846 7.23634 58.4068 6.71006 59.6894C6.21667 60.9391 6.57849 62.419 7.72972 63.8331C8.48625 64.754 8.74939 65.7077 8.48625 66.5298C8.22311 67.352 7.43369 67.944 6.28245 68.2399C4.50626 68.7004 3.35503 69.687 3.0261 71.0024C2.69718 72.3179 3.22346 73.732 4.53916 74.9817C5.39436 75.8039 5.78907 76.7247 5.62461 77.5469C5.46014 78.3691 4.7694 79.0926 3.65106 79.5201C1.97354 80.2107 0.953882 81.296 0.756527 82.6443C0.592065 83.9927 1.3157 85.341 2.76296 86.3934C3.71684 87.1169 4.21023 87.972 4.17734 88.7942C4.11155 89.6492 3.51949 90.4385 2.46693 90.9976C0.888096 91.8855 0 93.1023 0 94.4836C0 95.8319 0.888096 97.0816 2.46693 97.9696C3.51949 98.5615 4.11155 99.3508 4.17734 100.173C4.24312 101.028 3.71684 101.883 2.76296 102.574C1.2828 103.659 0.592065 104.974 0.756527 106.323C0.920989 107.671 1.94065 108.789 3.65106 109.447C4.7694 109.907 5.46014 110.598 5.62461 111.42C5.78907 112.242 5.39436 113.163 4.53916 113.985C3.22346 115.235 2.66429 116.649 3.0261 117.965C3.35503 119.28 4.50626 120.267 6.28245 120.727C7.43369 121.023 8.22311 121.648 8.48625 122.437C8.74939 123.259 8.48625 124.213 7.72972 125.134C6.57849 126.548 6.21667 128.028 6.71006 129.278C7.20344 130.527 8.48625 131.35 10.2624 131.613C11.4466 131.777 12.3018 132.27 12.6636 133.06C13.0254 133.816 12.8609 134.803 12.236 135.822C11.2821 137.368 11.0848 138.881 11.7426 140.065C12.4005 141.248 13.749 141.906 15.591 141.939C16.7751 141.939 17.6961 142.334 18.1566 143.057C18.6171 143.781 18.5842 144.767 18.0908 145.853C17.3672 147.431 17.3343 148.878 18.0251 149.963C18.7816 151.147 20.2289 151.706 22.1695 151.476C23.4194 151.312 24.4062 151.641 24.9325 152.364C25.393 153.022 25.4916 153.976 25.1298 155.061C24.6364 156.607 24.768 158.021 25.4588 159.007C26.314 160.191 27.9586 160.619 29.8663 160.158C31.1163 159.829 32.2017 160.06 32.7938 160.783C33.2872 161.375 33.4516 162.296 33.2543 163.348C32.9582 164.894 33.2214 166.177 33.945 167.065C34.9318 168.248 36.6751 168.512 38.5828 167.788C39.8328 167.295 40.984 167.426 41.6418 168.117C42.1352 168.643 42.3984 169.498 42.3326 170.518C42.2339 171.965 42.5957 173.181 43.3522 173.971C44.4706 175.155 46.3126 175.286 48.1874 174.234C48.8124 173.905 49.4045 173.741 49.9307 173.741C51.2464 173.741 52.1345 174.76 52.2332 176.47C52.3977 178.904 53.7463 180.482 55.6869 180.482C56.6079 180.482 57.5947 180.121 58.5157 179.43C59.1735 178.937 59.8643 178.706 60.4892 178.706C61.6404 178.706 62.5285 179.627 62.8246 181.14C63.2522 183.343 64.6008 184.725 66.3112 184.725C67.3308 184.725 68.4163 184.231 69.4031 183.311C70.0938 182.653 70.8503 182.324 71.5411 182.324C72.5936 182.324 73.4488 183.113 73.8764 184.462C74.5343 186.435 75.85 187.586 77.3959 187.586C78.5472 187.586 79.6984 186.961 80.6852 185.744C81.3759 184.922 82.1653 184.462 82.9219 184.462C83.8428 184.462 84.698 185.152 85.2572 186.303C86.0795 188.013 87.3623 189 88.7438 189C90.0266 189 91.2436 188.211 92.1646 186.764C93.4803 184.659 95.5197 184.659 96.8025 186.698Z" fill="#3F2212"/>
<path d="M172.291 100.206C172.258 100.995 171.6 101.587 170.81 101.521C170.021 101.456 169.429 100.765 169.462 100.009C169.495 99.2522 170.153 98.6603 170.942 98.6931C171.731 98.726 172.324 99.4166 172.291 100.206ZM170.218 105.731C169.462 105.632 168.738 106.158 168.607 106.915C168.508 107.671 169.034 108.395 169.791 108.559C170.547 108.691 171.271 108.197 171.403 107.375C171.534 106.586 171.008 105.83 170.218 105.731ZM168.87 112.67C168.113 112.473 167.357 112.933 167.159 113.689C166.962 114.413 167.423 115.202 168.179 115.432C168.936 115.663 169.692 115.202 169.889 114.413C170.087 113.624 169.626 112.867 168.87 112.67ZM166.896 119.445C166.14 119.182 165.35 119.576 165.087 120.3C164.824 121.023 165.219 121.845 165.942 122.109C166.666 122.404 167.488 122.01 167.751 121.253C168.015 120.53 167.62 119.708 166.896 119.445ZM164.298 126.055C163.574 125.726 162.752 126.022 162.39 126.713C162.061 127.403 162.357 128.258 163.048 128.587C163.739 128.949 164.594 128.62 164.923 127.929C165.285 127.206 164.989 126.351 164.298 126.055ZM161.074 132.336C160.384 131.942 159.528 132.172 159.134 132.83C158.739 133.487 158.969 134.342 159.627 134.77C160.285 135.197 161.173 134.967 161.568 134.277C161.962 133.586 161.765 132.731 161.074 132.336ZM155.318 138.618C154.858 139.242 154.989 140.098 155.614 140.591C156.239 141.051 157.127 140.92 157.588 140.295C158.081 139.637 157.917 138.782 157.292 138.322C156.667 137.894 155.779 138.026 155.318 138.618ZM150.976 144.044C150.45 144.603 150.516 145.491 151.075 146.017C151.634 146.543 152.555 146.478 153.081 145.886C153.608 145.294 153.575 144.406 152.983 143.912C152.391 143.452 151.503 143.485 150.976 144.044ZM146.141 149.076C145.582 149.602 145.549 150.49 146.075 151.049C146.602 151.641 147.49 151.674 148.082 151.115C148.674 150.588 148.707 149.7 148.148 149.141C147.621 148.582 146.733 148.549 146.141 149.076ZM140.911 153.614C140.286 154.074 140.188 154.962 140.648 155.587C141.109 156.212 142.03 156.344 142.655 155.85C143.28 155.357 143.411 154.502 142.918 153.877C142.424 153.252 141.503 153.154 140.911 153.614ZM135.254 157.626C134.596 158.021 134.399 158.876 134.793 159.534C135.188 160.191 136.076 160.389 136.767 159.994C137.458 159.566 137.655 158.711 137.227 158.087C136.8 157.462 135.912 157.232 135.254 157.626ZM129.267 161.145C128.577 161.474 128.281 162.329 128.642 163.02C129.004 163.71 129.859 164.006 130.583 163.644C131.307 163.283 131.57 162.461 131.208 161.77C130.813 161.112 129.958 160.816 129.267 161.145ZM122.952 164.072C122.228 164.335 121.867 165.124 122.163 165.881C122.426 166.604 123.281 166.966 124.037 166.703C124.794 166.44 125.123 165.585 124.827 164.861C124.498 164.138 123.676 163.842 122.952 164.072ZM116.406 166.44C115.683 166.637 115.222 167.394 115.452 168.15C115.65 168.906 116.472 169.334 117.229 169.137C118.018 168.939 118.413 168.051 118.15 167.361C117.919 166.571 117.163 166.243 116.406 166.44ZM109.696 168.15C108.94 168.281 108.446 168.972 108.578 169.761C108.71 170.518 109.466 171.044 110.255 170.945C111.045 170.748 111.505 169.959 111.341 169.202C111.176 168.446 110.42 167.985 109.696 168.15ZM102.822 169.202C102.065 169.334 101.506 169.959 101.572 170.748C101.638 171.504 102.361 172.162 103.151 171.998C103.94 171.866 104.499 171.143 104.401 170.386C104.269 169.63 103.578 169.104 102.822 169.202ZM95.8815 169.63C95.125 169.663 94.5 170.32 94.5 171.11C94.5 171.899 95.1579 172.491 95.9473 172.458C96.7367 172.425 97.3617 171.767 97.3288 170.978C97.2959 170.189 96.638 169.597 95.8815 169.63ZM88.9412 169.4C88.1847 169.367 87.4939 169.959 87.4281 170.748C87.3623 171.537 87.9544 172.195 88.7438 172.228C89.5332 172.261 90.224 171.669 90.2569 170.88C90.2898 170.123 89.6977 169.465 88.9412 169.4ZM82.0338 168.577C81.2772 168.446 80.5536 168.972 80.3892 169.761C80.2576 170.518 80.751 171.241 81.5733 171.373C82.3627 171.504 83.0863 170.978 83.2179 170.189C83.3166 169.4 82.7903 168.709 82.0338 168.577ZM75.2579 167.13C74.5343 166.933 73.7449 167.394 73.5146 168.15C73.3173 168.906 73.7449 169.663 74.5343 169.86C75.3237 170.057 76.0802 169.597 76.2776 168.841C76.4421 168.084 75.9816 167.295 75.2579 167.13ZM68.6465 165.026C67.9229 164.763 67.1006 165.124 66.8375 165.848C66.5414 166.571 66.9361 167.394 67.6927 167.657C68.4492 167.92 69.2715 167.558 69.5017 166.834C69.732 166.111 69.3373 165.289 68.6465 165.026ZM62.2325 162.362C61.5418 162.033 60.6866 162.329 60.3576 163.02C59.9958 163.71 60.2919 164.565 61.0155 164.894C61.7391 165.256 62.5614 164.96 62.8904 164.236C63.2193 163.513 62.9233 162.691 62.2325 162.362ZM56.1145 159.073C55.4567 158.679 54.6015 158.876 54.1739 159.534C53.7792 160.191 53.9765 161.079 54.6673 161.474C55.358 161.901 56.2132 161.671 56.6079 161.014C56.9697 160.356 56.7395 159.468 56.1145 159.073ZM48.3519 155.554C47.8914 156.179 48.023 157.067 48.6479 157.56C49.2729 158.054 50.161 157.889 50.6215 157.264C51.082 156.64 50.9175 155.719 50.3254 155.291C49.7005 154.798 48.8124 154.929 48.3519 155.554ZM42.8918 151.049C42.3655 151.641 42.4313 152.529 43.0233 153.055C43.6154 153.581 44.5035 153.548 44.9969 152.956C45.4903 152.364 45.4574 151.476 44.8653 150.95C44.3061 150.424 43.418 150.457 42.8918 151.049ZM37.8921 146.05C37.3 146.576 37.2672 147.464 37.8263 148.056C38.3526 148.648 39.2407 148.681 39.7999 148.122C40.359 147.563 40.3919 146.675 39.8657 146.116C39.3723 145.557 38.4842 145.524 37.8921 146.05ZM33.3858 140.591C32.7609 141.051 32.6622 141.972 33.1227 142.597C33.6161 143.222 34.4713 143.353 35.0962 142.86C35.6883 142.367 35.8199 141.446 35.3594 140.854C34.866 140.262 34.0108 140.13 33.3858 140.591ZM29.373 134.77C28.7151 135.165 28.5178 136.052 28.9125 136.743C29.3401 137.434 30.1953 137.631 30.8202 137.204C31.4781 136.776 31.6754 135.888 31.2807 135.23C30.886 134.573 30.0308 134.342 29.373 134.77ZM25.9193 128.587C25.2285 128.916 24.9325 129.804 25.2943 130.528C25.6561 131.251 26.4784 131.514 27.1692 131.152C27.827 130.791 28.123 129.903 27.7941 129.212C27.4652 128.521 26.61 128.258 25.9193 128.587ZM23.0576 122.141C22.334 122.437 21.9722 123.26 22.2353 124.016C22.4984 124.772 23.3536 125.101 24.0773 124.805C24.8009 124.509 25.0969 123.687 24.8667 122.964C24.6036 122.207 23.7812 121.845 23.0576 122.141ZM22.4984 116.386C22.3011 115.63 21.5446 115.202 20.788 115.432C20.0315 115.63 19.6039 116.452 19.8013 117.208C19.9986 117.998 20.8867 118.392 21.6103 118.129C22.3669 117.899 22.6958 117.11 22.4984 116.386ZM20.788 109.644C20.6565 108.888 19.9657 108.395 19.1763 108.526C18.4198 108.658 17.8935 109.414 17.9922 110.203C18.1895 110.96 18.9789 111.453 19.7355 111.289C20.492 111.124 20.9525 110.401 20.788 109.644ZM19.7355 102.771C19.571 102.015 18.979 101.456 18.1895 101.521C17.433 101.587 16.7752 102.311 16.9067 103.1C17.0383 103.889 17.7619 104.448 18.5185 104.35C19.3079 104.218 19.8342 103.527 19.7355 102.771ZM17.9593 97.279C18.7487 97.2461 19.3408 96.5884 19.3079 95.832C19.275 95.0756 18.6171 94.4508 17.8277 94.4508C17.0383 94.4508 16.4462 95.1085 16.4791 95.8978C16.512 96.687 17.2028 97.3119 17.9593 97.279ZM18.058 90.2084C18.8474 90.2413 19.5052 89.6493 19.5381 88.8929C19.571 88.1365 18.979 87.4459 18.1895 87.3801C17.4001 87.3143 16.7423 87.9063 16.7094 88.6956C16.6765 89.4849 17.2685 90.1755 18.058 90.2084ZM18.7487 83.1706C19.5052 83.2693 20.2289 82.776 20.3604 81.9867C20.4591 81.2303 19.9328 80.5068 19.1763 80.3423C18.4198 80.2108 17.6961 80.7041 17.5646 81.4934C17.433 82.3484 17.9593 83.0719 18.7487 83.1706ZM20.0973 76.2315C20.8538 76.4288 21.6103 75.9684 21.8077 75.212C22.0051 74.4885 21.5446 73.6992 20.788 73.469C20.0315 73.2388 19.275 73.6992 19.0776 74.4885C18.8803 75.2778 19.3408 76.0671 20.0973 76.2315ZM22.0708 69.4568C22.7945 69.7199 23.6168 69.3253 23.8799 68.6018C24.1431 67.8783 23.7484 67.0561 23.0247 66.793C22.3011 66.497 21.4788 66.8917 21.2156 67.6481C20.9854 68.3716 21.3472 69.1937 22.0708 69.4568ZM24.7022 62.8795C25.4259 63.2084 26.2482 62.9124 26.61 62.2218C26.9389 61.5311 26.6429 60.6761 25.9521 60.3472C25.2614 59.9855 24.4062 60.3143 24.0773 61.0049C23.6826 61.6956 23.9786 62.5506 24.7022 62.8795ZM29.8664 56.0719C30.2611 55.4142 30.0637 54.5591 29.373 54.1316C28.7151 53.7041 27.827 53.9343 27.4323 54.6249C27.0047 55.3155 27.235 56.1706 27.9257 56.5652C28.5835 56.9599 29.4387 56.7297 29.8664 56.0719ZM33.3858 48.3107C32.7609 47.8503 31.8728 47.9818 31.4123 48.6067C30.9189 49.2644 31.0505 50.1194 31.7083 50.5799C32.3662 51.0403 33.2543 50.8758 33.6819 50.2839C34.1424 49.659 34.0108 48.7711 33.3858 48.3107ZM37.8921 42.8844C37.3329 42.3582 36.4119 42.4239 35.8857 43.0159C35.3594 43.6079 35.3923 44.4958 35.9843 44.9891C36.5764 45.4824 37.4974 45.4495 37.9908 44.8576C38.5171 44.2985 38.4842 43.4105 37.8921 42.8844ZM42.8918 37.8856C42.3655 37.2936 41.4774 37.2607 40.8853 37.8198C40.2933 38.346 40.2604 39.2339 40.8195 39.793C41.3787 40.3521 42.2668 40.385 42.826 39.8588C43.3851 39.3326 43.418 38.4447 42.8918 37.8856ZM48.3519 33.3472C47.8914 32.7224 46.9704 32.5908 46.3455 33.0841C45.7205 33.5774 45.5889 34.4325 46.0823 35.0573C46.5757 35.6493 47.4638 35.7808 48.0888 35.3204C48.6808 34.86 48.8124 33.9721 48.3519 33.3472ZM54.1739 29.335C53.7792 28.6773 52.8911 28.48 52.2003 28.8746C51.5096 29.3021 51.3122 30.1572 51.7727 30.782C52.2003 31.4398 53.0884 31.6371 53.7463 31.2425C54.3712 30.8807 54.5686 30.0256 54.1739 29.335ZM60.3576 25.8819C60.0287 25.1913 59.1406 24.8953 58.417 25.2571C57.6934 25.5859 57.4302 26.441 57.792 27.1316C58.1539 27.7893 59.0091 28.0853 59.6998 27.7565C60.4234 27.4276 60.6866 26.6054 60.3576 25.8819ZM66.8046 23.0208C66.5414 22.2973 65.6862 21.9355 64.9297 22.1986C64.1732 22.4617 63.8442 23.3168 64.1403 24.0403C64.4363 24.7638 65.2586 25.0597 65.9823 24.7967C66.7388 24.5664 67.1006 23.7772 66.8046 23.0208ZM73.5146 20.7845C73.3173 20.0281 72.495 19.5677 71.7384 19.7979C70.949 19.9952 70.5543 20.8831 70.8174 21.5738C71.0806 22.3302 71.8371 22.659 72.5607 22.4946C73.2844 22.2973 73.7449 21.5409 73.5146 20.7845ZM78.7116 17.9891C77.9222 18.1864 77.4617 18.9757 77.6262 19.7321C77.7906 20.4885 78.5472 20.9489 79.2708 20.7516C80.0273 20.62 80.5207 19.9294 80.3892 19.1401C80.2576 18.3837 79.5011 17.8576 78.7116 17.9891ZM85.8493 16.9038C85.0599 17.0354 84.5007 17.7589 84.5994 18.5153C84.6981 19.2717 85.3888 19.8308 86.1453 19.6992C86.9019 19.5677 87.461 18.9428 87.3952 18.1535C87.3623 17.3971 86.6387 16.7394 85.8493 16.9038ZM93.0527 16.4763C92.2633 16.5092 91.6384 17.1669 91.6713 17.9562C91.7041 18.7455 92.362 19.3375 93.1185 19.3046C93.875 19.2717 94.5 18.614 94.5 17.8247C94.5 17.0354 93.8422 16.4105 93.0527 16.4763ZM100.256 16.6736C99.4668 16.6407 98.776 17.2327 98.7431 18.022C98.7102 18.8113 99.3023 19.469 100.059 19.5019C100.815 19.5348 101.506 18.9428 101.572 18.1535C101.638 17.3971 101.046 16.7065 100.256 16.6736ZM107.394 17.5287C106.604 17.3971 105.881 17.9562 105.749 18.7126C105.651 19.469 106.177 20.1925 106.933 20.3241C107.69 20.4556 108.414 19.8965 108.578 19.1401C108.71 18.3837 108.183 17.6602 107.394 17.5287ZM114.433 19.0744C113.643 18.877 112.887 19.3375 112.69 20.0939C112.492 20.8502 112.953 21.6066 113.709 21.804C114.433 22.0013 115.222 21.5409 115.452 20.7845C115.683 20.0281 115.222 19.2717 114.433 19.0744ZM121.307 21.212C120.551 20.9489 119.761 21.3107 119.498 22.0342C119.235 22.7577 119.63 23.5798 120.353 23.8429C121.077 24.106 121.899 23.7443 122.163 23.0208C122.459 22.2973 122.064 21.508 121.307 21.212ZM127.952 24.0074C127.228 23.6456 126.406 23.9416 126.077 24.6651C125.748 25.3886 126.044 26.2108 126.735 26.5725C127.425 26.9014 128.281 26.6054 128.609 25.9148C128.971 25.1913 128.675 24.3691 127.952 24.0074ZM134.333 27.3947C133.642 26.9672 132.787 27.1974 132.392 27.888C131.997 28.5786 132.228 29.4337 132.885 29.8283C133.543 30.223 134.399 30.0256 134.826 29.335C135.221 28.6773 134.991 27.8222 134.333 27.3947ZM140.352 31.374C139.727 30.8807 138.839 31.0451 138.379 31.67C137.918 32.2948 138.083 33.2157 138.675 33.6432C139.3 34.1036 140.155 33.9721 140.648 33.3472C141.109 32.7224 140.977 31.8344 140.352 31.374ZM145.977 35.8466C145.385 35.3204 144.497 35.3533 144.003 35.9453C143.51 36.5372 143.543 37.4252 144.102 37.9513C144.661 38.4775 145.549 38.4118 146.075 37.8527C146.602 37.2936 146.569 36.4057 145.977 35.8466ZM151.141 40.8454C150.615 40.2534 149.726 40.2205 149.167 40.7796C148.608 41.3387 148.575 42.2266 149.101 42.7857C149.628 43.3448 150.516 43.3777 151.075 42.8515C151.667 42.3582 151.7 41.4373 151.141 40.8454ZM155.877 46.3046C155.384 45.6797 154.529 45.5482 153.904 46.0415C153.312 46.5348 153.18 47.4227 153.641 48.0476C154.101 48.6724 154.989 48.7711 155.614 48.3107C156.239 47.8503 156.338 46.9294 155.877 46.3046ZM159.594 54.1316C160.252 53.737 160.449 52.849 160.055 52.1584C159.627 51.4678 158.772 51.2705 158.147 51.7309C157.489 52.1584 157.292 53.0464 157.686 53.7041C158.081 54.3618 158.936 54.5591 159.594 54.1316ZM163.048 60.3143C163.739 59.9855 164.035 59.0975 163.673 58.374C163.311 57.6505 162.489 57.3874 161.798 57.7492C161.14 58.1109 160.844 58.966 161.173 59.6895C161.535 60.3801 162.357 60.6761 163.048 60.3143ZM165.91 66.793C166.633 66.497 166.995 65.6749 166.732 64.9185C166.469 64.1621 165.613 63.8332 164.89 64.1292C164.166 64.4252 163.87 65.2473 164.133 65.9708C164.396 66.6943 165.186 67.0561 165.91 66.793ZM166.469 72.5482C166.666 73.3046 167.423 73.7321 168.179 73.5019C168.936 73.3046 169.363 72.4824 169.166 71.726C168.969 70.9367 168.08 70.5421 167.39 70.8052C166.633 71.0354 166.304 71.7918 166.469 72.5482ZM168.212 79.2571C168.344 80.0135 169.034 80.5068 169.824 80.3752C170.58 80.2437 171.107 79.4873 170.975 78.698C170.778 77.9087 169.988 77.4483 169.232 77.6127C168.475 77.7772 168.015 78.5336 168.212 79.2571ZM169.265 86.1304C169.396 86.8868 170.021 87.4459 170.81 87.3801C171.567 87.3143 172.225 86.5908 172.06 85.8015C171.929 85.0123 171.205 84.4532 170.449 84.5518C169.659 84.6834 169.133 85.374 169.265 86.1304ZM171.008 91.6225C170.218 91.6554 169.626 92.3131 169.659 93.0695C169.692 93.8259 170.35 94.4508 171.139 94.4508C171.929 94.4508 172.521 93.793 172.488 93.0037C172.455 92.2145 171.797 91.5896 171.008 91.6225Z" fill="#EF7B84"/>
<path d="M77.2374 102H74.5303V95.0498H67.5372V102H64.8194V86.3593H67.5372V92.8691H74.5303V86.3593H77.2374V102Z" fill="#3F2212"/>
<path d="M92.9424 94.5879C92.9424 96.1204 92.6775 97.4668 92.1475 98.6269C91.6176 99.7799 90.8585 100.668 89.8702 101.291C88.8891 101.907 87.7575 102.215 86.4756 102.215C85.2081 102.215 84.0766 101.907 83.0811 101.291C82.0928 100.668 81.3266 99.7835 80.7823 98.6377C80.2452 97.4918 79.973 96.1705 79.9659 94.6738V93.7929C79.9659 92.2676 80.2344 90.9212 80.7715 89.7539C81.3158 88.5866 82.0785 87.695 83.0596 87.0791C84.0479 86.456 85.1794 86.1445 86.4542 86.1445C87.7289 86.1445 88.8568 86.4524 89.838 87.0683C90.8262 87.6771 91.5889 88.5579 92.126 89.7109C92.6631 90.8567 92.9353 92.1924 92.9424 93.7177V94.5879ZM90.2247 93.7715C90.2247 92.0384 89.8952 90.7099 89.2364 89.7861C88.5847 88.8623 87.6573 88.4004 86.4542 88.4004C85.2797 88.4004 84.3594 88.8623 83.6934 89.7861C83.0346 90.7028 82.698 92.0026 82.6837 93.6855V94.5879C82.6837 96.3066 83.0167 97.6351 83.6827 98.5732C84.3559 99.5114 85.2868 99.9804 86.4756 99.9804C87.6788 99.9804 88.6026 99.5221 89.2471 98.6054C89.8988 97.6888 90.2247 96.3496 90.2247 94.5879V93.7715Z" fill="#3F2212"/>
<path d="M99.1729 86.3593L103.685 98.3476L108.186 86.3593H111.698V102H108.991V96.8437L109.26 89.9472L104.641 102H102.696L98.088 89.958L98.3565 96.8437V102H95.6495V86.3593H99.1729Z" fill="#3F2212"/>
<path d="M124.063 95.0176H117.639V99.8301H125.148V102H114.921V86.3593H125.072V88.5508H117.639V92.8691H124.063V95.0176Z" fill="#3F2212"/>
</svg>
