<svg width="25" height="24" viewBox="0 0 25 24" fill="none" xmlns="http://www.w3.org/2000/svg">
<path d="M1.53772 23.4396L3.146 17.5943C2.15713 15.8838 1.63006 13.9408 1.6355 11.9545C1.6355 5.73022 6.72125 0.669678 12.9699 0.669678C16.0018 0.669678 18.8489 1.84418 20.9844 3.97663C23.1252 6.10909 24.3043 8.9452 24.2988 11.96C24.2988 18.1842 19.213 23.2448 12.9644 23.2448H12.959C11.0627 23.2448 9.19897 22.7685 7.54175 21.87L1.53772 23.4396ZM7.82431 19.8241L8.16659 20.0298C9.61194 20.885 11.2692 21.3341 12.959 21.3396H12.9644C18.1535 21.3396 22.3807 17.1341 22.3807 11.96C22.3807 9.45396 21.4027 7.09962 19.6259 5.32428C17.8492 3.54902 15.4801 2.57483 12.9644 2.57483C7.76994 2.57483 3.54266 6.78025 3.54266 11.9544C3.54266 13.7244 4.03709 15.4509 4.98256 16.9448L5.20531 17.302L4.2545 20.7605L7.82431 19.8241Z" fill="black" fill-opacity="0.15"/>
<path d="M2.05182 22.8363L3.58651 17.2612C2.64018 15.6259 2.14236 13.7715 2.14304 11.884C2.14304 5.95073 6.99404 1.12402 12.9449 1.12402C15.8373 1.12402 18.5472 2.24651 20.5863 4.27764C22.6253 6.30887 23.747 9.01358 23.747 11.8893C23.747 17.8224 18.896 22.6491 12.945 22.6491H12.9397C11.1312 22.6491 9.35504 22.1948 7.77741 21.3396L2.05182 22.8364V22.8363Z" fill="url(#paint0_linear)"/>
<path d="M1.66016 23.2265L3.24847 17.4537C2.27187 15.7647 1.75128 13.8457 1.75672 11.884C1.75672 5.73705 6.77938 0.739258 12.9505 0.739258C15.9447 0.739258 18.7564 1.8991 20.8654 4.00513C22.9796 6.11115 24.144 8.91205 24.1387 11.8894C24.1387 18.0363 19.116 23.0341 12.9449 23.0341H12.9397C11.0705 23.0334 9.2313 22.5666 7.58966 21.6764L1.66016 23.2266V23.2265ZM7.86866 19.6559L8.20672 19.859C9.63416 20.7036 11.2708 21.1473 12.9397 21.1526H12.945C18.0696 21.1526 22.2445 16.9994 22.2445 11.8894C22.2445 9.41456 21.2786 7.08936 19.5238 5.33614C17.7691 3.58293 15.4295 2.62078 12.945 2.62078C7.81503 2.62078 3.64025 6.774 3.64025 11.884C3.64025 13.6319 4.1285 15.337 5.06225 16.8123L5.28228 17.1651L4.34319 20.5806L7.86866 19.6559Z" fill="white"/>
<path d="M10.1494 7.21764C9.94002 6.75259 9.71999 6.74185 9.52152 6.73652C9.36055 6.7312 9.17277 6.7312 8.98489 6.7312C8.79711 6.7312 8.49655 6.80068 8.23902 7.07859C7.98139 7.3566 7.26233 8.0301 7.26233 9.40389C7.26233 10.7722 8.26583 12.0978 8.40533 12.2848C8.54483 12.472 10.3425 15.3744 13.1811 16.4915C15.5422 17.4217 16.0252 17.2345 16.535 17.1864C17.0501 17.1383 18.1878 16.5129 18.4238 15.8608C18.6546 15.2087 18.6546 14.6528 18.5848 14.5352C18.5151 14.4176 18.3273 14.3482 18.0482 14.2091C17.7692 14.0702 16.3955 13.3967 16.1379 13.3005C15.8803 13.2043 15.6925 13.1615 15.5101 13.4394C15.3222 13.7174 14.7857 14.3428 14.6246 14.5299C14.4636 14.7169 14.2973 14.7383 14.0182 14.5994C13.7392 14.4604 12.8377 14.1663 11.7699 13.2149C10.9382 12.4773 10.3747 11.5632 10.2137 11.2853C10.0527 11.0074 10.1976 10.8576 10.3371 10.7188C10.4605 10.5958 10.6161 10.3926 10.7557 10.2323C10.8952 10.072 10.9435 9.95439 11.0347 9.76725C11.126 9.5802 11.083 9.41986 11.0133 9.2809C10.9435 9.14185 10.3962 7.76815 10.1494 7.21764Z" fill="white"/>
<defs>
<linearGradient id="paint0_linear" x1="12.899" y1="22.8348" x2="12.899" y2="1.12272" gradientUnits="userSpaceOnUse">
<stop stop-color="#20B038"/>
<stop offset="1" stop-color="#60D66A"/>
</linearGradient>
</defs>
</svg>
