<svg width="22" height="22" viewBox="0 0 22 22" fill="none" xmlns="http://www.w3.org/2000/svg">
<g clip-path="url(#clip0)">
<path d="M20.7622 21.737C21.4167 21.737 21.9474 21.2063 21.9474 20.5518V1.44835C21.9474 0.793735 21.4167 0.263184 20.7622 0.263184H1.65886C1.00416 0.263184 0.473694 0.793735 0.473694 1.44835V20.5518C0.473694 21.2063 1.00416 21.737 1.65886 21.737H20.7622Z" fill="#395185"/>
<path d="M15.2901 21.7368V13.4211H18.0814L18.4993 10.1803H15.2901V8.11111C15.2901 7.17281 15.5507 6.53338 16.8963 6.53338L18.6124 6.53263V3.6341C18.3155 3.59459 17.2968 3.50635 16.1117 3.50635C13.6374 3.50635 11.9435 5.01663 11.9435 7.79026V10.1803H9.14502V13.4211H11.9435V21.7368H15.2901Z" fill="white"/>
</g>
<defs>
<clipPath id="clip0">
<rect width="21.4737" height="21.4737" fill="white" transform="translate(0.473694 0.263184)"/>
</clipPath>
</defs>
</svg>
