<svg width="22" height="22" viewBox="0 0 22 22" fill="none" xmlns="http://www.w3.org/2000/svg">
<g clip-path="url(#clip0)">
<rect y="0.263184" width="21.4737" height="21.4737" rx="5.5" fill="#C4C4C4"/>
<rect y="0.263184" width="21.4737" height="21.4737" rx="5.5" fill="url(#paint0_radial)"/>
<path d="M10.7368 4.78677C12.7605 4.78677 13.0002 4.79447 13.7993 4.83089C14.5383 4.86464 14.9396 4.98809 15.2067 5.09189C15.5604 5.22937 15.8129 5.39362 16.0781 5.65883C16.3434 5.92403 16.5076 6.1765 16.645 6.53023C16.7488 6.79733 16.8723 7.19866 16.906 7.93754C16.9425 8.73677 16.9502 8.97645 16.9502 11.0001C16.9502 13.0238 16.9425 13.2635 16.906 14.0626C16.8723 14.8016 16.7488 15.2029 16.645 15.47C16.5076 15.8237 16.3433 16.0762 16.0781 16.3414C15.8129 16.6066 15.5604 16.7709 15.2067 16.9083C14.9396 17.0121 14.5383 17.1356 13.7993 17.1693C13.0003 17.2058 12.7606 17.2135 10.7368 17.2135C8.71303 17.2135 8.47335 17.2058 7.6743 17.1693C6.93535 17.1355 6.53408 17.0121 6.26698 16.9083C5.91326 16.7709 5.66073 16.6066 5.39552 16.3414C5.13032 16.0761 4.96607 15.8237 4.82864 15.47C4.72485 15.2029 4.60133 14.8016 4.56764 14.0626C4.53117 13.2635 4.52347 13.0238 4.52347 11.0001C4.52347 8.97645 4.53117 8.73677 4.56764 7.9376C4.60139 7.19866 4.72485 6.79733 4.82864 6.53023C4.96607 6.1765 5.13032 5.92403 5.39552 5.65883C5.66079 5.39356 5.91326 5.22937 6.26698 5.09189C6.53402 4.98809 6.93535 4.86464 7.6743 4.83089C8.47346 4.79447 8.71315 4.78677 10.7368 4.78677ZM10.7368 3.42114C8.67851 3.42114 8.42041 3.42985 7.61207 3.46673C6.80533 3.50356 6.25437 3.6317 5.77234 3.81904C5.2739 4.01271 4.85126 4.27188 4.42992 4.69322C4.00858 5.11456 3.74947 5.53721 3.55579 6.03558C3.36839 6.51768 3.24032 7.06863 3.20349 7.87531C3.1666 8.68366 3.1579 8.94175 3.1579 11.0001C3.1579 13.0584 3.1666 13.3165 3.20349 14.1249C3.24032 14.9316 3.36839 15.4826 3.55579 15.9646C3.74941 16.463 4.00858 16.8857 4.42992 17.307C4.85126 17.7284 5.2739 17.9875 5.77234 18.1811C6.25443 18.3685 6.80533 18.4966 7.61201 18.5334C8.42041 18.5703 8.67851 18.579 10.7368 18.579C12.7952 18.579 13.0533 18.5703 13.8616 18.5334C14.6683 18.4966 15.2193 18.3685 15.7013 18.1811C16.1997 17.9875 16.6224 17.7284 17.0437 17.307C17.4651 16.8857 17.7242 16.463 17.9179 15.9646C18.1052 15.4825 18.2334 14.9316 18.2702 14.1249C18.3071 13.3165 18.3158 13.0584 18.3158 11.0001C18.3158 8.94175 18.3071 8.68366 18.2702 7.87531C18.2334 7.06863 18.1052 6.51768 17.9179 6.03564C17.7242 5.53721 17.4651 5.11456 17.0437 4.69322C16.6224 4.27188 16.1997 4.01266 15.7014 3.81904C15.2193 3.6317 14.6683 3.50356 13.8616 3.46673C13.0533 3.42985 12.7952 3.42114 10.7368 3.42114ZM10.7368 7.10818C8.58738 7.10818 6.84494 8.85075 6.84494 11.0001C6.84494 13.1496 8.58738 14.892 10.7368 14.892C12.8862 14.892 14.6288 13.1496 14.6288 11.0001C14.6288 8.85069 12.8862 7.10818 10.7368 7.10818ZM10.7368 13.5264C9.34161 13.5264 8.21051 12.3953 8.21051 11.0001C8.21051 9.60485 9.34161 8.47375 10.7368 8.47375C12.1321 8.47375 13.2632 9.60485 13.2632 11.0001C13.2632 12.3953 12.1321 13.5264 10.7368 13.5264ZM15.6919 6.95441C15.6919 7.45675 15.2848 7.86389 14.7825 7.86389C14.2802 7.86389 13.873 7.45675 13.873 6.95441C13.873 6.45213 14.2802 6.04494 14.7825 6.04494C15.2848 6.04494 15.6919 6.45213 15.6919 6.95441Z" fill="white"/>
</g>
<defs>
<radialGradient id="paint0_radial" cx="0" cy="0" r="1" gradientUnits="userSpaceOnUse" gradientTransform="translate(3.78228 22.939) rotate(-52.0463) scale(28.7491 28.7495)">
<stop stop-color="#FFDA54"/>
<stop offset="0.239583" stop-color="#F8504D"/>
<stop offset="0.645833" stop-color="#C837AB"/>
<stop offset="1" stop-color="#3E6BC9"/>
</radialGradient>
<clipPath id="clip0">
<rect width="21.4737" height="21.4737" fill="white" transform="translate(0 0.263184)"/>
</clipPath>
</defs>
</svg>
