<svg width="251" height="41" viewBox="0 0 251 41" fill="none" xmlns="http://www.w3.org/2000/svg">
<path d="M12.2677 2.72598C7.25861 2.77455 3.50841 6.06219 3.54958 10.3083C3.5557 10.9386 3.62622 11.3692 3.76245 11.7328C2.07063 11.7492 1.46418 10.793 1.4526 9.59879C1.41786 6.0161 6.81739 1.75037 13.4188 1.68635C20.2856 1.61976 23.0174 6.20476 23.0746 12.1096C23.1821 23.1894 13.8517 32.6355 4.86176 32.7227C3.23628 32.7385 1.7406 32.4544 0.731572 31.0376C2.18676 23.7247 6.08424 11.6772 7.15032 8.71413C7.44116 7.91509 8.57487 5.08412 10.1008 5.06932C10.4326 5.0661 10.7984 5.16208 11.1662 5.4571C8.05272 12.8192 4.67924 24.165 3.1255 31.5784C3.8231 31.6711 4.28816 31.733 4.78576 31.7282C12.9132 31.6493 20.3099 21.2266 20.2176 11.706C20.1571 5.46944 16.912 2.68094 12.2677 2.72598Z" fill="#3F2212"/>
<path d="M35.5892 19.685C35.5933 20.1163 33.0863 25.0175 33.1111 27.5718C33.1201 28.5007 33.4576 29.0946 34.3864 29.0856C36.0119 29.0698 38.8761 26.786 40.7287 22.8201L41.2295 23.147C39.6111 27.3097 36.3217 30.228 33.6016 30.2543C31.578 30.274 30.9023 29.0198 30.8869 27.4275C30.8811 26.8304 30.9742 26.166 31.1336 25.5009C29.7316 28.0359 28.0613 30.2749 26.1705 30.2932C24.4455 30.31 23.267 28.5299 23.2468 26.44C23.2185 23.5207 25.3848 17.6939 26.5458 17.6826C26.8112 17.6801 27.5439 17.9715 27.9797 18.4318C27.1629 19.7336 25.4752 23.5984 25.5 26.1527C25.5064 26.8162 25.6243 28.7061 26.918 28.6935C29.3065 28.6704 32.3887 21.5076 33.7872 18.6077C34.1537 18.77 35.5827 19.0216 35.5892 19.685Z" fill="#3F2212"/>
<path d="M43.1436 22.1C42.8585 23.4961 42.6724 24.825 42.6836 25.9861C42.7029 27.9764 43.2762 28.933 44.4041 28.9221C46.4276 28.9024 48.5533 25.7301 49.8845 22.7313L50.4513 23.0244C48.4702 27.4229 46.0746 30.1334 43.3213 30.1601C41.1318 30.1813 40.2198 28.4982 40.1979 26.2424C40.1265 18.878 49.2789 1.33856 51.8996 1.31314C52.6957 1.30542 53.1772 3.05909 53.1878 4.1538C53.2206 7.53745 48.7048 17.4014 43.1436 22.1ZM43.4624 20.7698C47.8642 16.2484 51.9932 7.54936 51.9684 4.99503C51.9636 4.49744 51.7965 4.36636 51.6969 4.36732C50.6689 4.41047 45.5138 13.3517 43.4624 20.7698Z" fill="#3F2212"/>
<path d="M58.005 28.7902C58.1084 29.1873 58.1789 29.6179 58.1831 30.0492C58.2282 34.6934 53.7974 39.6464 49.12 39.6918C47.5609 39.7069 46.5937 39.1855 46.5799 37.759C46.548 34.4749 51.4705 32.3371 55.8871 29.3415C55.8691 27.4839 55.1918 26.0638 53.186 24.4908C55.8656 23.7018 57.3304 20.8013 57.3111 18.8109C57.2998 17.6498 56.7939 16.7922 55.7987 16.8018C53.2443 16.8266 51.7493 20.026 50.0274 23.7916L49.5592 23.398C51.2066 18.8037 52.8318 15.3377 56.315 15.3039C58.04 15.2872 59.5115 16.5004 59.5301 18.4244C59.5572 21.211 57.3558 23.4219 55.0781 24.6052C56.415 25.6207 57.3219 26.7731 57.7986 28.0291C59.7085 26.5509 61.2837 24.7772 61.9923 22.5808L62.4281 23.041C61.6876 25.3705 60.0466 27.2111 58.005 28.7902ZM55.8291 30.2047C51.7743 32.8649 47.579 34.7303 47.6041 37.3178C47.6127 38.2135 48.1139 38.5736 48.8105 38.5668C50.7014 38.5485 55.383 35.5172 55.8291 30.2047Z" fill="#3F2212"/>
<path d="M73.7382 19.3151C73.7424 19.7464 71.2353 24.6476 71.2601 27.2019C71.2691 28.1307 71.6066 28.7246 72.5355 28.7156C74.1609 28.6999 77.0251 26.4161 78.8777 22.4502L79.3785 22.7771C77.7601 26.9398 74.4708 29.858 71.7506 29.8844C69.727 29.904 69.0513 28.6499 69.0359 27.0576C69.0301 26.4605 69.1232 25.796 69.2826 25.131C67.8806 27.666 66.2104 29.905 64.3195 29.9233C62.5945 29.94 61.4161 28.1599 61.3958 26.07C61.3675 23.1508 63.5338 17.324 64.6948 17.3127C64.9602 17.3101 65.6929 17.6016 66.1287 18.0619C65.3119 19.3636 63.6242 23.2284 63.649 25.7828C63.6554 26.4462 63.7733 28.3361 65.067 28.3236C67.4555 28.3004 70.5378 21.1377 71.9362 18.2378C72.3027 18.4001 73.7317 18.6516 73.7382 19.3151Z" fill="#3F2212"/>
<path d="M78.2271 23.7836C78.9109 22.4499 80.1786 19.7503 81.2746 16.4552C81.0402 16.2253 80.8714 15.9283 80.8675 15.5303C80.8527 14.0043 82.0364 12.898 82.4676 12.8938C82.9984 12.8887 83.0048 13.5521 83.0074 13.8175C83.01 14.0829 82.5884 15.0823 82.59 15.2481C82.6038 16.6746 86.5243 17.2669 86.5562 20.551C86.579 22.9063 84.6794 25.4461 84.6949 27.0385C84.7039 27.9673 85.2369 28.1944 85.8672 28.1882C88.2888 28.1648 91.4065 24.651 92.347 22.4191L92.8484 22.8124C91.4203 26.0775 88.1696 29.5593 84.8855 29.5912C83.1605 29.6079 82.0893 28.623 82.0748 27.1302C82.053 24.8744 84.1481 21.9678 84.1284 19.9442C84.1124 18.2856 82.9127 17.7332 81.9439 17.0459C80.7789 20.0763 79.3811 23.0425 78.5985 24.4435L78.2271 23.7836Z" fill="#3F2212"/>
<path d="M103.815 21.2463C103.823 22.142 101.626 24.751 101.644 26.6087C101.651 27.3717 102.058 28.2967 102.954 28.288C104.347 28.2745 106.783 26.2603 109.032 22.1578L109.434 22.552C107.849 26.7144 104.625 29.5657 101.905 29.592C100.014 29.6104 99.1386 28.2918 99.1255 26.9317C99.1226 26.6332 99.1519 26.2348 99.214 25.8029C97.0201 28.7768 95.3427 30.286 93.4519 30.3044C91.8264 30.3201 90.589 29.3037 90.5681 27.1474C90.5237 22.5695 96.0933 15.3163 101.069 15.268C103.06 15.2487 104.564 16.3953 104.58 18.1203C104.593 19.3809 103.834 19.7864 102.706 19.7973C102.801 19.3651 102.896 18.8665 102.892 18.4684C102.881 17.3074 102.373 16.317 100.98 16.3305C97.3642 16.3656 93.154 23.5393 93.19 27.2547C93.2 28.283 93.5363 28.7442 94.2329 28.7375C96.6214 28.7143 100.349 23.0714 102.213 20.2997C102.744 20.3609 103.809 20.6492 103.815 21.2463Z" fill="#3F2212"/>
<path d="M110.024 21.8164C111.534 20.1098 112.843 18.2724 113.752 16.2067L113.747 15.7423C113.729 13.8514 114.485 13.1142 115.215 13.1071C115.646 13.1029 115.847 13.3332 115.85 13.5986C115.852 13.864 115.625 14.397 115.634 15.2927C115.658 17.8138 117.68 20.9791 117.714 24.5286C117.721 25.2253 117.66 25.823 117.5 26.4218C119.255 26.1061 120.836 24.9296 122.301 22.0291L122.637 22.424C121.702 25.2198 119.593 26.6669 117.307 27.054C116.532 29.2511 114.618 30.265 112.428 30.2862C108.813 30.3213 107.592 27.6126 107.569 25.2905C107.573 22.2715 109.597 22.285 110.024 21.8164ZM114.885 27.0443C112.725 26.6339 110.952 25.1914 110.144 23.9054C109.514 23.9446 109.32 24.4442 109.327 25.2403C109.345 27.098 110.524 28.9444 112.515 28.9251C113.112 28.9193 114.338 28.7416 114.885 27.0443ZM113.965 17.6975C112.79 19.6663 111.448 21.5704 110.298 22.7095C111.077 24.3608 112.751 25.937 115.078 26.4121C115.14 25.9138 115.234 25.3821 115.227 24.6191C115.203 22.1975 114.35 19.7839 113.965 17.6975Z" fill="#3F2212"/>
<path d="M130.908 23.7188C129.116 23.7188 127.524 26.8372 127.524 28.0978C127.524 28.5954 127.756 28.894 128.121 28.894C129.017 28.894 130.643 27.1026 131.704 24.3159C132.932 21.098 134.424 17.2166 135.353 17.2166C135.519 17.2166 135.685 17.3824 135.685 17.5815C135.685 18.6431 131.87 24.714 131.87 27.9983C131.87 28.6286 131.87 28.9272 132.235 28.9272C132.932 28.9272 134.093 27.9983 134.789 26.4723L134.988 26.6381C134.358 28.3632 132.898 29.6239 131.77 29.6239C130.941 29.6239 130.676 28.9604 130.676 28.3632C130.676 27.9651 130.808 27.368 131.007 26.5718C129.913 28.3632 128.619 29.657 127.624 29.657C127.06 29.657 126.363 29.2258 126.363 28.2637C126.363 26.4059 128.785 23.188 130.842 23.188C131.306 23.188 131.571 23.3539 131.571 23.6856C131.571 23.7851 131.571 23.8515 131.538 23.9178C131.406 23.7851 131.206 23.7188 130.908 23.7188Z" fill="#3F2212"/>
<path d="M135.386 27.4343C135.32 27.6333 135.32 27.8656 135.32 28.0314C135.32 28.6949 135.619 29.4248 136.647 29.4248C138.074 29.4248 139.533 28.0978 140.363 26.4722L140.562 26.6381C139.666 28.6286 137.941 29.9224 136.282 29.9224C134.922 29.9224 134.259 29.093 134.259 27.9983C134.259 26.0078 136.514 23.2211 138.472 23.2211C139.003 23.2211 139.5 23.4202 139.5 24.2164C139.5 25.9083 137.277 27.2684 135.386 27.4343ZM135.486 27.1357C136.68 26.7045 138.803 25.5433 138.803 24.1168C138.803 23.8514 138.737 23.7187 138.439 23.7187C137.377 23.7187 135.917 25.5433 135.486 27.1357Z" fill="#3F2212"/>
<path d="M145.571 25.842C145.438 26.4391 145.339 27.0362 145.339 27.5339C145.339 28.3964 145.604 28.8277 146.069 28.8277C146.964 28.8277 147.893 27.4675 148.457 26.1737L148.723 26.3064C147.86 28.1974 146.799 29.3585 145.604 29.3585C144.675 29.3585 144.277 28.6286 144.277 27.6334C144.277 24.4486 148.325 16.8848 149.453 16.8848C149.784 16.8848 150.016 17.6478 150.016 18.1123C149.983 19.572 147.993 23.8183 145.571 25.842ZM145.737 25.278C147.661 23.3207 149.486 19.6051 149.486 18.4772C149.486 18.2782 149.419 18.2118 149.353 18.2118C148.922 18.2118 146.633 22.0601 145.737 25.278Z" fill="#3F2212"/>
<path d="M153.467 25.7092C153.467 26.1073 152.505 27.2021 152.505 28.0315C152.505 28.3632 152.67 28.7613 153.069 28.7613C153.666 28.7613 154.727 27.8988 155.723 26.1405L155.888 26.3064C155.192 28.0978 153.765 29.3253 152.604 29.3253C151.775 29.3253 151.41 28.7281 151.41 28.1642C151.41 28.0315 151.41 27.8656 151.476 27.6665C150.514 28.9604 149.784 29.5907 148.955 29.5907C148.258 29.5907 147.727 29.1262 147.727 28.1973C147.727 26.2069 150.182 23.0884 152.339 23.0884C153.201 23.0884 153.865 23.5861 153.865 24.3491C153.865 24.8799 153.533 25.0457 153.035 25.0457C153.069 24.8799 153.135 24.6476 153.135 24.4486C153.135 23.951 152.903 23.5197 152.306 23.5197C150.746 23.5197 148.889 26.6049 148.889 28.2305C148.889 28.6949 149.054 28.894 149.353 28.894C150.381 28.894 152.007 26.4723 152.836 25.278C153.002 25.3443 153.467 25.477 153.467 25.7092Z" fill="#3F2212"/>
<path d="M162.656 23.5542C162.656 27.0043 164.049 30.2886 167.566 30.2886C171.281 30.2886 175.229 26.7721 177.054 22.7912L177.551 23.1561C175.196 27.7342 171.414 31.5161 166.736 31.5161C161.76 31.5161 159.869 27.2697 159.869 22.9902C159.869 13.7677 167.599 3.35083 174.234 3.35083C176.125 3.35083 177.452 4.1802 177.452 6.36972C177.452 9.09004 175.329 13.8008 173.405 13.8008C173.006 13.8008 172.608 13.6018 172.31 13.0046C173.736 11.4123 176.059 7.9621 176.059 5.97162C176.059 5.04273 175.528 4.41242 174.333 4.41242C169.291 4.37925 162.656 15.6918 162.656 23.5542Z" fill="#3F2212"/>
<path d="M181.997 17.3825C181.997 18.5436 178.348 22.7568 178.348 26.041C178.348 27.7329 178.912 28.131 180.073 28.131C181.632 28.131 183.456 26.7709 185.447 22.7899L185.746 23.1549C184.385 27.169 181.599 29.3585 178.878 29.3585C177.054 29.3585 176.191 28.0647 176.191 26.4391C176.191 23.7852 178.845 16.6195 181.234 16.6195C181.665 16.6195 181.997 16.8848 181.997 17.3825ZM181.665 12.2072C181.665 11.2452 183.092 10.3826 184.22 10.3826C184.916 10.3826 185.381 10.648 185.381 11.4774C185.381 12.3399 184.22 13.3683 183.125 13.3683C182.329 13.3683 181.665 13.0034 181.665 12.2072Z" fill="#3F2212"/>
<path d="M196.162 19.9037C196.162 20.3018 193.807 24.7141 193.807 27.0695C193.807 27.8988 194.106 28.4628 194.968 28.4628C196.428 28.4628 199.082 26.406 200.807 22.7899L201.271 23.0885C199.778 26.8704 196.726 29.4912 194.238 29.4912C192.38 29.4912 191.783 28.3301 191.783 26.9036C191.783 26.3396 191.883 25.7425 192.016 25.1453C190.722 27.4676 189.196 29.4912 187.437 29.4912C185.878 29.4912 184.817 27.8657 184.817 25.9747C184.817 23.3207 186.84 18.046 187.902 18.046C188.134 18.046 188.798 18.3114 189.196 18.7426C188.433 19.9369 186.84 23.4203 186.84 25.7756C186.84 26.3728 186.94 28.131 188.101 28.131C190.257 28.131 193.143 21.6288 194.47 19.008C194.869 19.0412 196.162 19.3066 196.162 19.9037Z" fill="#3F2212"/>
<path d="M209.134 16.918C205.352 16.918 202.034 23.4534 202.034 26.1406C202.034 27.2022 202.532 27.8325 203.295 27.8325C205.186 27.8325 208.603 24.0506 210.826 18.2118C213.413 11.4774 216.565 3.28326 218.489 3.28326C218.887 3.28326 219.186 3.64819 219.186 4.07946C219.186 6.26899 211.157 19.0744 211.157 25.9747C211.157 27.3017 211.157 27.932 211.954 27.932C213.38 27.932 215.868 25.9415 217.328 22.7568L217.759 23.0553C216.399 26.6382 213.347 29.2922 210.991 29.2922C209.233 29.2922 208.702 27.8988 208.702 26.6714C208.702 25.8752 208.935 24.5482 209.366 22.9226C207.11 26.6714 204.357 29.4249 202.233 29.4249C201.039 29.4249 199.613 28.5623 199.613 26.5055C199.613 22.6241 204.688 15.8233 209.001 15.8233C209.963 15.8233 210.527 16.1882 210.527 16.918C210.527 17.0839 210.494 17.2166 210.461 17.4156C210.228 17.0839 209.764 16.918 209.134 16.918Z" fill="#3F2212"/>
<path d="M227.91 21.9273C227.91 22.7235 225.887 25.1121 225.887 26.7708C225.887 27.4675 226.252 28.2969 227.081 28.2969C228.342 28.2969 230.564 26.4723 232.654 22.7899L233.019 23.1548C231.56 26.9367 228.574 29.5243 226.119 29.5243C224.394 29.5243 223.598 28.2969 223.598 27.0694C223.598 26.804 223.631 26.4391 223.697 26.041C221.674 28.7281 220.148 30.0883 218.423 30.0883C216.963 30.0883 215.835 29.1594 215.835 27.2021C215.835 23.0553 220.977 16.4867 225.522 16.4867C227.346 16.4867 228.707 17.5483 228.707 19.1075C228.707 20.2686 228.01 20.6003 226.982 20.6003C227.081 20.2022 227.147 19.771 227.147 19.3729C227.147 18.3113 226.683 17.4156 225.422 17.4156C222.138 17.4156 218.223 23.9178 218.223 27.3016C218.223 28.2305 218.522 28.6618 219.152 28.6618C221.309 28.6618 224.792 23.5529 226.484 21.0316C226.915 21.098 227.91 21.3965 227.91 21.9273Z" fill="#3F2212"/>
<path d="M240.948 16.918C237.166 16.918 233.849 23.4534 233.849 26.1406C233.849 27.2022 234.346 27.8325 235.109 27.8325C237 27.8325 240.417 24.0506 242.64 18.2118C245.228 11.4774 248.379 3.28326 250.303 3.28326C250.701 3.28326 251 3.64819 251 4.07946C251 6.26899 242.972 19.0744 242.972 25.9747C242.972 27.3017 242.972 27.932 243.768 27.932C245.194 27.932 247.683 25.9415 249.142 22.7568L249.573 23.0553C248.213 26.6382 245.161 29.2922 242.806 29.2922C241.048 29.2922 240.484 27.8988 240.484 26.6714C240.484 25.8752 240.716 24.5482 241.147 22.9226C238.891 26.6714 236.138 29.4249 234.015 29.4249C232.82 29.4249 231.394 28.5623 231.394 26.5055C231.394 22.6241 236.47 15.8233 240.782 15.8233C241.744 15.8233 242.308 16.1882 242.308 16.918C242.308 17.0839 242.275 17.2166 242.242 17.4156C242.043 17.0839 241.578 16.918 240.948 16.918Z" fill="#3F2212"/>
</svg>
